<?xml version="1.0" standalone="no"?>
<!DOCTYPE svg PUBLIC "-//W3C//DTD SVG 20010904//EN"
 "http://www.w3.org/TR/2001/REC-SVG-20010904/DTD/svg10.dtd">
<svg version="1.0" xmlns="http://www.w3.org/2000/svg"
 width="200.000000pt" height="96.000000pt" viewBox="0 0 200.000000 96.000000"
 preserveAspectRatio="xMidYMid meet">

<g transform="translate(0.000000,96.000000) scale(0.100000,-0.100000)"
fill="#000000" stroke="none">
<path d="M0 480 l0 -480 1000 0 1000 0 0 480 0 480 -1000 0 -1000 0 0 -480z
m297 308 c-2 -7 -14 -49 -27 -93 -12 -44 -31 -110 -41 -147 -10 -36 -19 -71
-19 -77 0 -7 34 -11 99 -11 l98 0 25 -57 25 -58 -200 -3 c-110 -1 -202 -1
-204 1 -4 5 49 198 98 360 l30 97 60 0 c45 0 60 -3 56 -12z m459 -5 c-2 -10
-14 -54 -26 -98 -12 -44 -39 -138 -61 -208 -21 -71 -39 -130 -39 -133 0 -2
-27 -4 -60 -4 -33 0 -60 1 -60 3 0 1 7 25 16 52 8 28 28 100 45 160 16 61 39
140 50 178 l20 67 60 0 c53 0 60 -2 55 -17z m278 0 c2 -10 8 -57 11 -104 4
-48 10 -91 14 -97 3 -6 40 41 81 104 l75 114 79 0 79 0 -7 -31 c-3 -17 -6 -42
-6 -55 0 -21 -5 -24 -39 -24 l-39 0 -116 -175 -116 -175 -45 0 c-29 0 -45 4
-46 13 0 6 -6 62 -13 122 l-13 110 -17 -39 c-9 -21 -35 -76 -56 -122 l-39 -84
-60 0 c-34 0 -61 2 -61 4 0 3 88 201 160 358 l45 97 62 1 c50 0 63 -3 67 -17z
m590 -54 l59 -71 71 71 71 71 81 0 80 0 -231 -230 -231 -230 -79 0 -80 0 114
114 c70 70 112 120 108 128 -2 8 -37 54 -77 104 -40 49 -77 95 -83 102 -7 9 7
12 65 12 l74 0 58 -71z m-279 -81 c3 -7 -3 -78 -13 -158 l-17 -145 -57 -3
c-32 -2 -58 1 -58 5 0 4 5 49 11 98 10 88 38 153 86 201 18 17 42 18 48 2z
m509 -203 c42 -52 76 -97 76 -100 0 -3 -33 -5 -72 -4 l-73 0 -42 54 c-24 30
-43 57 -43 61 0 7 70 84 76 84 1 0 36 -43 78 -95z m-1698 -174 c37 -23 50 -61
32 -99 -16 -33 -52 -52 -100 -52 l-38 0 0 85 0 85 38 0 c20 0 51 -9 68 -19z
m111 -18 l15 -38 19 38 c13 24 27 37 39 37 26 0 26 0 -10 -67 -16 -31 -30 -66
-30 -79 0 -17 -6 -24 -20 -24 -16 0 -20 7 -20 30 0 17 -11 53 -25 80 -30 60
-30 60 -4 60 14 0 25 -11 36 -37z m188 -15 l35 -53 0 53 c0 45 3 52 20 52 18
0 20 -7 20 -85 0 -77 -2 -85 -19 -85 -12 0 -30 17 -48 45 -15 25 -31 45 -35
45 -5 0 -8 -20 -8 -45 0 -33 -4 -45 -15 -45 -12 0 -15 16 -15 85 0 104 13 110
65 33z m229 -20 c14 -40 26 -79 26 -85 0 -18 -37 -16 -44 2 -7 20 -62 20 -70
0 -7 -19 -36 -20 -36 -2 0 11 22 83 45 145 2 6 15 12 28 12 21 0 28 -10 51
-72z m117 22 c12 -27 25 -50 29 -50 4 0 17 23 28 50 16 37 26 50 41 50 20 0
21 -6 21 -86 0 -76 -2 -85 -17 -82 -12 2 -20 16 -23 38 l-6 35 -13 -37 c-17
-52 -43 -50 -66 5 l-19 42 -4 -42 c-2 -29 -8 -43 -18 -43 -11 0 -14 18 -14 85
0 78 2 85 20 85 14 0 26 -14 41 -50z m199 -35 c0 -78 -2 -85 -20 -85 -18 0
-20 7 -20 85 0 78 2 85 20 85 18 0 20 -7 20 -85z m164 64 c14 -11 26 -25 26
-30 0 -13 -44 -11 -57 2 -6 6 -21 9 -34 7 -20 -2 -24 -9 -24 -37 0 -42 25 -62
55 -43 23 14 60 16 60 3 0 -18 -53 -51 -82 -51 -71 0 -108 105 -52 149 15 12
39 21 54 21 15 0 39 -9 54 -21z m147 11 c10 -6 19 -17 19 -25 0 -18 -31 -20
-47 -4 -6 6 -16 8 -23 4 -15 -10 4 -31 35 -39 52 -13 53 -79 1 -92 -36 -9 -57
-2 -75 25 -15 24 -15 24 9 19 14 -3 31 -7 39 -9 31 -9 21 22 -12 36 -39 16
-52 38 -37 65 16 30 56 38 91 20z"/>
<path d="M90 205 c0 -57 6 -63 41 -45 13 7 19 21 19 45 0 24 -6 38 -19 45 -35
18 -41 12 -41 -45z"/>
<path d="M622 210 c-7 -19 -6 -26 5 -28 21 -5 25 2 14 29 l-9 24 -10 -25z"/>
</g>
</svg>
