<?xml version="1.0" encoding="UTF-8"?>
<!DOCTYPE svg PUBLIC "-//W3C//DTD SVG 1.1//EN" "http://www.w3.org/Graphics/SVG/1.1/DTD/svg11.dtd">
<svg xmlns="http://www.w3.org/2000/svg" version="1.1" width="640px" height="640px" style="shape-rendering:geometricPrecision; text-rendering:geometricPrecision; image-rendering:optimizeQuality; fill-rule:evenodd; clip-rule:evenodd" xmlns:xlink="http://www.w3.org/1999/xlink">
<g><path style="opacity:1" fill="#000000" d="M -0.5,-0.5 C 212.833,-0.5 426.167,-0.5 639.5,-0.5C 639.5,212.833 639.5,426.167 639.5,639.5C 426.167,639.5 212.833,639.5 -0.5,639.5C -0.5,426.167 -0.5,212.833 -0.5,-0.5 Z"/></g>
<g><path style="opacity:1" fill="#f2f2f2" d="M 74.5,284.5 C 90.5139,284.167 106.514,284.501 122.5,285.5C 121.833,286.833 121.167,288.167 120.5,289.5C 114.202,290.496 107.868,290.83 101.5,290.5C 101.5,297.167 101.5,303.833 101.5,310.5C 99.1667,310.5 96.8333,310.5 94.5,310.5C 94.5,303.833 94.5,297.167 94.5,290.5C 87.8333,290.5 81.1667,290.5 74.5,290.5C 74.5,288.5 74.5,286.5 74.5,284.5 Z"/></g>
<g><path style="opacity:1" fill="#f2f2f2" d="M 135.5,304.5 C 148.167,305.167 160.833,305.833 173.5,306.5C 172.972,307.721 172.305,308.887 171.5,310C 158.167,310.667 144.833,310.667 131.5,310C 130.299,309.097 129.465,307.931 129,306.5C 128.333,300.167 128.333,293.833 129,287.5C 129.833,286.667 130.667,285.833 131.5,285C 145.833,284.333 160.167,284.333 174.5,285C 173.5,286.667 172.5,288.333 171.5,290C 159.505,290.5 147.505,290.667 135.5,290.5C 135.5,291.833 135.5,293.167 135.5,294.5C 146.853,294.168 158.186,294.501 169.5,295.5C 168.833,296.833 168.167,298.167 167.5,299.5C 156.854,300.499 146.187,300.832 135.5,300.5C 135.5,301.833 135.5,303.167 135.5,304.5 Z"/></g>
<g><path style="opacity:1" fill="#f4f4f4" d="M 217.5,305.5 C 217.56,306.043 217.893,306.376 218.5,306.5C 219.497,299.197 219.831,291.863 219.5,284.5C 221.833,284.5 224.167,284.5 226.5,284.5C 226.5,293.167 226.5,301.833 226.5,310.5C 221.489,310.666 216.489,310.499 211.5,310C 204.303,302.469 196.803,295.302 189,288.5C 188.5,295.826 188.334,303.159 188.5,310.5C 186.167,310.5 183.833,310.5 181.5,310.5C 181.5,301.833 181.5,293.167 181.5,284.5C 186.179,284.334 190.845,284.501 195.5,285C 203.03,291.7 210.364,298.533 217.5,305.5 Z"/></g>
<g><path style="opacity:1" fill="#f6f6f6" d="M 276.5,289.5 C 264.5,289.5 252.5,289.5 240.5,289.5C 240.5,294.833 240.5,300.167 240.5,305.5C 253.344,305.171 266.011,305.505 278.5,306.5C 277.972,307.721 277.305,308.887 276.5,310C 263.167,310.667 249.833,310.667 236.5,310C 235.299,309.097 234.465,307.931 234,306.5C 233.333,300.5 233.333,294.5 234,288.5C 234.465,287.069 235.299,285.903 236.5,285C 250.845,284.167 265.178,284.334 279.5,285.5C 278.479,286.901 277.479,288.235 276.5,289.5 Z"/></g>
<g><path style="opacity:1" fill="#f1f1f1" d="M 289.5,284.5 C 303.516,284.167 317.516,284.501 331.5,285.5C 330.833,286.833 330.167,288.167 329.5,289.5C 317.518,290.499 305.518,290.832 293.5,290.5C 293.5,291.833 293.5,293.167 293.5,294.5C 304.853,294.168 316.186,294.501 327.5,295.5C 326.376,296.914 325.376,298.414 324.5,300C 314.172,300.5 303.839,300.666 293.5,300.5C 293.5,301.833 293.5,303.167 293.5,304.5C 306.184,304.168 318.851,304.501 331.5,305.5C 330.833,306.833 330.167,308.167 329.5,309.5C 316.179,310.666 302.846,310.833 289.5,310C 288.667,309.167 287.833,308.333 287,307.5C 286.333,300.833 286.333,294.167 287,287.5C 288.045,286.627 288.878,285.627 289.5,284.5 Z"/></g>
<g><path style="opacity:1" fill="#eeeeee" d="M 347.5,289.5 C 347.44,288.957 347.107,288.624 346.5,288.5C 345.503,295.803 345.169,303.137 345.5,310.5C 343.167,310.5 340.833,310.5 338.5,310.5C 338.5,301.833 338.5,293.167 338.5,284.5C 343.511,284.334 348.511,284.501 353.5,285C 361.303,291.802 368.803,298.969 376,306.5C 376.5,299.174 376.666,291.841 376.5,284.5C 379.167,284.5 381.833,284.5 384.5,284.5C 384.5,293.167 384.5,301.833 384.5,310.5C 379.489,310.666 374.489,310.499 369.5,310C 361.996,303.328 354.662,296.495 347.5,289.5 Z"/></g>
<g><path style="opacity:1" fill="#f1f1f1" d="M 389.5,284.5 C 405.847,284.167 422.18,284.501 438.5,285.5C 437.376,286.914 436.376,288.414 435.5,290C 429.509,290.499 423.509,290.666 417.5,290.5C 417.5,297.167 417.5,303.833 417.5,310.5C 415.167,310.5 412.833,310.5 410.5,310.5C 410.5,303.833 410.5,297.167 410.5,290.5C 403.5,290.5 396.5,290.5 389.5,290.5C 389.5,288.5 389.5,286.5 389.5,284.5 Z"/></g>
<g><path style="opacity:1" fill="#575757" d="M 219.5,284.5 C 219.831,291.863 219.497,299.197 218.5,306.5C 217.893,306.376 217.56,306.043 217.5,305.5C 218.167,298.5 218.833,291.5 219.5,284.5 Z"/></g>
<g><path style="opacity:1" fill="#838383" d="M 347.5,289.5 C 346.833,296.5 346.167,303.5 345.5,310.5C 345.169,303.137 345.503,295.803 346.5,288.5C 347.107,288.624 347.44,288.957 347.5,289.5 Z"/></g>
<g><path style="opacity:1" fill="#c6c6c6" d="M 135.5,304.5 C 148.517,304.168 161.517,304.501 174.5,305.5C 174.376,306.107 174.043,306.44 173.5,306.5C 160.833,305.833 148.167,305.167 135.5,304.5 Z"/></g>
<g><path style="opacity:1" fill="#bdbdbd" d="M 276.5,289.5 C 265.012,290.495 253.345,290.828 241.5,290.5C 241.5,295.167 241.5,299.833 241.5,304.5C 254.184,304.168 266.851,304.501 279.5,305.5C 279.376,306.107 279.043,306.44 278.5,306.5C 266.011,305.505 253.344,305.171 240.5,305.5C 240.5,300.167 240.5,294.833 240.5,289.5C 252.5,289.5 264.5,289.5 276.5,289.5 Z"/></g>
<g><path style="opacity:1" fill="#bdbdbd" d="M 116.5,329.5 C 102.656,329.171 88.9898,329.504 75.5,330.5C 74.9569,330.44 74.6236,330.107 74.5,329.5C 88.661,328.174 102.661,328.174 116.5,329.5 Z"/></g>
<g><path style="opacity:1" fill="#bbbbbb" d="M 332.5,330.5 C 317.009,329.504 301.342,329.17 285.5,329.5C 285.5,331.167 285.5,332.833 285.5,334.5C 284.539,332.735 284.205,330.735 284.5,328.5C 300.847,328.167 317.18,328.501 333.5,329.5C 333.376,330.107 333.043,330.44 332.5,330.5 Z"/></g>
<g><path style="opacity:1" fill="#bebebe" d="M 384.5,329.5 C 369.5,329.5 354.5,329.5 339.5,329.5C 339.5,331.167 339.5,332.833 339.5,334.5C 338.539,332.735 338.205,330.735 338.5,328.5C 354.009,328.17 369.342,328.504 384.5,329.5 Z"/></g>
<g><path style="opacity:1" fill="#bababa" d="M 394.5,329.5 C 408.672,328.174 423.006,328.174 437.5,329.5C 437.376,330.107 437.043,330.44 436.5,330.5C 422.677,329.504 408.677,329.171 394.5,329.5 Z"/></g>
<g><path style="opacity:1" fill="#f0f0f0" d="M 116.5,329.5 C 121.078,330.843 122.578,333.843 121,338.5C 119.854,340.644 118.354,342.477 116.5,344C 117.903,347.473 119.57,350.806 121.5,354C 118.833,354.667 116.167,354.667 113.5,354C 112.167,351.667 110.833,349.333 109.5,347C 100.84,346.5 92.1731,346.334 83.5,346.5C 83.5,349.167 83.5,351.833 83.5,354.5C 80.8333,354.5 78.1667,354.5 75.5,354.5C 75.5,349.833 75.5,345.167 75.5,340.5C 88.1667,340.5 100.833,340.5 113.5,340.5C 113.5,338.5 113.5,336.5 113.5,334.5C 101.495,334.667 89.4954,334.5 77.5,334C 76.695,332.887 76.0283,331.721 75.5,330.5C 88.9898,329.504 102.656,329.171 116.5,329.5 Z"/></g>
<g><path style="opacity:1" fill="#f5f5f5" d="M 139.5,350.5 C 148.5,349.833 157.5,349.167 166.5,348.5C 166.5,343.833 166.5,339.167 166.5,334.5C 156.167,334.5 145.833,334.5 135.5,334.5C 135.5,341.167 135.5,347.833 135.5,354.5C 132.675,354.919 130.509,353.919 129,351.5C 128.333,345.167 128.333,338.833 129,332.5C 129.5,330.667 130.667,329.5 132.5,329C 145.167,328.333 157.833,328.333 170.5,329C 171.333,329.833 172.167,330.667 173,331.5C 173.797,338.55 173.63,345.55 172.5,352.5C 171.975,353.192 171.308,353.692 170.5,354C 160.833,354.667 151.167,354.667 141.5,354C 140.695,352.887 140.028,351.721 139.5,350.5 Z"/></g>
<g><path style="opacity:1" fill="#eeeeee" d="M 181.5,328.5 C 195.171,328.333 208.837,328.5 222.5,329C 227.989,333.7 227.656,337.867 221.5,341.5C 226.752,344.266 227.752,348.1 224.5,353C 219.107,354.12 213.607,354.62 208,354.5C 203.167,354.167 198.333,353.833 193.5,353.5C 192.833,352.167 192.167,350.833 191.5,349.5C 200.475,348.502 209.475,348.168 218.5,348.5C 218.5,347.167 218.5,345.833 218.5,344.5C 210.493,344.666 202.493,344.5 194.5,344C 193.128,342.758 192.128,341.258 191.5,339.5C 200.475,338.502 209.475,338.168 218.5,338.5C 218.5,337.167 218.5,335.833 218.5,334.5C 208.5,334.5 198.5,334.5 188.5,334.5C 188.5,341.167 188.5,347.833 188.5,354.5C 186.167,354.5 183.833,354.5 181.5,354.5C 181.5,345.833 181.5,337.167 181.5,328.5 Z"/></g>
<g><path style="opacity:1" fill="#ececec" d="M 244.5,350.5 C 253.5,349.833 262.5,349.167 271.5,348.5C 271.5,343.833 271.5,339.167 271.5,334.5C 261.5,334.5 251.5,334.5 241.5,334.5C 241.5,341.167 241.5,347.833 241.5,354.5C 238.348,355.041 235.848,354.041 234,351.5C 233.333,345.167 233.333,338.833 234,332.5C 234.5,330.667 235.667,329.5 237.5,329C 250.167,328.333 262.833,328.333 275.5,329C 276.667,330.167 277.833,331.333 279,332.5C 279.92,339.276 279.586,345.943 278,352.5C 277.25,353.126 276.416,353.626 275.5,354C 265.833,354.667 256.167,354.667 246.5,354C 245.695,352.887 245.028,351.721 244.5,350.5 Z"/></g>
<g><path style="opacity:1" fill="#efefef" d="M 332.5,330.5 C 331.972,331.721 331.305,332.887 330.5,334C 324.509,334.499 318.509,334.666 312.5,334.5C 312.5,341.167 312.5,347.833 312.5,354.5C 309.833,354.5 307.167,354.5 304.5,354.5C 304.5,347.833 304.5,341.167 304.5,334.5C 298.167,334.5 291.833,334.5 285.5,334.5C 285.5,332.833 285.5,331.167 285.5,329.5C 301.342,329.17 317.009,329.504 332.5,330.5 Z"/></g>
<g><path style="opacity:1" fill="#f1f1f1" d="M 384.5,329.5 C 383.847,330.807 383.18,332.14 382.5,333.5C 376.872,334.495 371.206,334.829 365.5,334.5C 365.5,339.167 365.5,343.833 365.5,348.5C 371.868,348.17 378.202,348.504 384.5,349.5C 383.833,350.833 383.167,352.167 382.5,353.5C 368.182,354.499 353.849,354.833 339.5,354.5C 339.5,352.833 339.5,351.167 339.5,349.5C 345.69,349.823 351.69,349.49 357.5,348.5C 357.5,343.833 357.5,339.167 357.5,334.5C 351.5,334.5 345.5,334.5 339.5,334.5C 339.5,332.833 339.5,331.167 339.5,329.5C 354.5,329.5 369.5,329.5 384.5,329.5 Z"/></g>
<g><path style="opacity:1" fill="#f9f9f9" d="M 394.5,329.5 C 408.677,329.171 422.677,329.504 436.5,330.5C 435.972,331.721 435.305,332.887 434.5,334C 422.505,334.5 410.505,334.667 398.5,334.5C 398.5,339.167 398.5,343.833 398.5,348.5C 411.167,349.167 423.833,349.833 436.5,350.5C 435.972,351.721 435.305,352.887 434.5,354C 421.167,354.667 407.833,354.667 394.5,354C 393.667,353.167 392.833,352.333 392,351.5C 391.333,344.833 391.333,338.167 392,331.5C 392.708,330.619 393.542,329.953 394.5,329.5 Z"/></g>
<g><path style="opacity:1" fill="#f0f0f0" d="M 444.5,350.5 C 456.989,349.505 469.656,349.171 482.5,349.5C 482.784,347.585 482.451,345.919 481.5,344.5C 469.829,344.667 458.162,344.5 446.5,344C 442.272,338.716 442.605,333.716 447.5,329C 461.163,328.5 474.829,328.333 488.5,328.5C 488.617,330.484 487.95,332.15 486.5,333.5C 474.852,334.499 463.186,334.832 451.5,334.5C 451.5,335.833 451.5,337.167 451.5,338.5C 463.171,338.333 474.838,338.5 486.5,339C 489.829,343.137 490.329,347.637 488,352.5C 487.25,353.126 486.416,353.626 485.5,354C 472.5,354.667 459.5,354.667 446.5,354C 445.695,352.887 445.028,351.721 444.5,350.5 Z"/></g>
<g><path style="opacity:1" fill="#efefef" d="M 520.5,329.5 C 524.311,328.355 528.311,328.188 532.5,329C 536.698,332.03 541.032,334.863 545.5,337.5C 549.833,334.667 554.167,331.833 558.5,329C 562.5,328.333 566.5,328.333 570.5,329C 564.167,333.167 557.833,337.333 551.5,341.5C 557.969,345.47 564.302,349.637 570.5,354C 566.5,354.667 562.5,354.667 558.5,354C 554.302,350.97 549.968,348.137 545.5,345.5C 541.032,348.137 536.698,350.97 532.5,354C 528.5,354.667 524.5,354.667 520.5,354C 526.661,349.996 532.661,345.829 538.5,341.5C 532.852,337.007 526.852,333.007 520.5,329.5 Z"/></g>
<g><path style="opacity:1" fill="#939393" d="M 166.5,348.5 C 157.5,349.167 148.5,349.833 139.5,350.5C 138.957,350.44 138.624,350.107 138.5,349.5C 147.81,348.502 157.143,348.168 166.5,348.5 Z"/></g>
<g><path style="opacity:1" fill="#919191" d="M 271.5,348.5 C 262.5,349.167 253.5,349.833 244.5,350.5C 243.957,350.44 243.624,350.107 243.5,349.5C 252.81,348.502 262.143,348.168 271.5,348.5 Z"/></g>
<g><path style="opacity:1" fill="#999999" d="M 357.5,348.5 C 351.69,349.49 345.69,349.823 339.5,349.5C 339.5,351.167 339.5,352.833 339.5,354.5C 338.539,352.735 338.205,350.735 338.5,348.5C 344.833,348.5 351.167,348.5 357.5,348.5 Z"/></g>
<g><path style="opacity:1" fill="#949494" d="M 398.5,348.5 C 411.517,348.168 424.517,348.501 437.5,349.5C 437.376,350.107 437.043,350.44 436.5,350.5C 423.833,349.833 411.167,349.167 398.5,348.5 Z"/></g>
<g><path style="opacity:1" fill="#949494" d="M 481.5,344.5 C 482.451,345.919 482.784,347.585 482.5,349.5C 469.656,349.171 456.989,349.505 444.5,350.5C 443.957,350.44 443.624,350.107 443.5,349.5C 456.149,348.501 468.816,348.168 481.5,348.5C 481.5,347.167 481.5,345.833 481.5,344.5 Z"/></g>
</svg>
