<?xml version="1.0" encoding="UTF-8"?>
<!DOCTYPE svg PUBLIC "-//W3C//DTD SVG 1.1//EN" "http://www.w3.org/Graphics/SVG/1.1/DTD/svg11.dtd">
<svg xmlns="http://www.w3.org/2000/svg" version="1.1" width="600px" height="600px" style="shape-rendering:geometricPrecision; text-rendering:geometricPrecision; image-rendering:optimizeQuality; fill-rule:evenodd; clip-rule:evenodd" xmlns:xlink="http://www.w3.org/1999/xlink">
<g><path style="opacity:1" fill="#fefefe" d="M -0.5,-0.5 C 199.5,-0.5 399.5,-0.5 599.5,-0.5C 599.5,199.5 599.5,399.5 599.5,599.5C 399.5,599.5 199.5,599.5 -0.5,599.5C -0.5,399.5 -0.5,199.5 -0.5,-0.5 Z"/></g>
<g><path style="opacity:1" fill="#992744" d="M 31.5,314.5 C 31.2627,313.209 31.596,312.209 32.5,311.5C 35.7219,332.774 45.3885,350.607 61.5,365C 88.5245,383.054 114.191,381.22 138.5,359.5C 158.32,338.046 165.82,312.713 161,283.5C 156.402,258.086 142.902,239.253 120.5,227C 98.8313,217.758 78.8313,220.425 60.5,235C 43.8286,250.172 34.4952,269.005 32.5,291.5C 31.6724,297.319 31.1724,303.319 31,309.5C 30.7679,308.263 30.2679,307.263 29.5,306.5C 27.177,272.988 39.5103,246.488 66.5,227C 103.818,211.217 132.985,220.717 154,255.5C 166.52,281.524 167.854,308.191 158,335.5C 149.082,355.419 134.582,369.586 114.5,378C 87.517,384.672 65.3503,377.172 48,355.5C 38.4145,343.505 32.9145,329.839 31.5,314.5 Z"/></g>
<g><path style="opacity:1" fill="#b7566e" d="M 233.5,245.5 C 235.641,244.837 237.975,244.503 240.5,244.5C 244.447,244.363 248.114,245.03 251.5,246.5C 249.801,246.34 248.134,246.506 246.5,247C 247.056,247.383 247.389,247.883 247.5,248.5C 244.236,247.676 240.902,247.342 237.5,247.5C 239.969,246.683 242.635,246.183 245.5,246C 241.514,245.501 237.514,245.334 233.5,245.5 Z"/></g>
<g><path style="opacity:1" fill="#8c1535" d="M 251.5,246.5 C 252.5,246.5 253.5,246.5 254.5,246.5C 254.815,250.371 254.482,254.038 253.5,257.5C 253.672,252.973 251.672,249.973 247.5,248.5C 247.389,247.883 247.056,247.383 246.5,247C 248.134,246.506 249.801,246.34 251.5,246.5 Z"/></g>
<g><path style="opacity:1" fill="#da698c" d="M 254.5,246.5 C 255.809,250.351 255.809,254.351 254.5,258.5C 253.893,258.376 253.56,258.043 253.5,257.5C 254.482,254.038 254.815,250.371 254.5,246.5 Z"/></g>
<g><path style="opacity:1" fill="#a74c64" d="M 473.5,261.5 C 474.609,260.71 475.942,260.21 477.5,260C 474.854,259.503 472.187,259.336 469.5,259.5C 469.5,260.5 469.5,261.5 469.5,262.5C 469.167,262.5 468.833,262.5 468.5,262.5C 467.081,261.549 465.415,261.216 463.5,261.5C 463.5,260.5 463.5,259.5 463.5,258.5C 468.5,258.5 473.5,258.5 478.5,258.5C 478.5,259.5 478.5,260.5 478.5,261.5C 476.833,261.5 475.167,261.5 473.5,261.5 Z"/></g>
<g><path style="opacity:1" fill="#951d3d" d="M 233.5,245.5 C 237.514,245.334 241.514,245.501 245.5,246C 242.635,246.183 239.969,246.683 237.5,247.5C 225.862,248.651 221.362,254.984 224,266.5C 225.812,268.3 227.645,269.967 229.5,271.5C 228.022,271.762 226.689,271.429 225.5,270.5C 220.368,261.27 218.701,261.603 220.5,271.5C 216.037,261.434 218.37,253.267 227.5,247C 229.518,246.495 231.518,245.995 233.5,245.5 Z"/></g>
<g><path style="opacity:1" fill="#c7778f" d="M 486.5,262.5 C 495.318,261.507 504.318,261.173 513.5,261.5C 513.737,262.791 513.404,263.791 512.5,264.5C 504.231,262.53 495.565,261.864 486.5,262.5 Z"/></g>
<g><path style="opacity:1" fill="#991a39" d="M 514.5,308.5 C 515.622,309.156 516.955,309.489 518.5,309.5C 520.333,309.415 521.666,308.748 522.5,307.5C 525.463,299.591 528.796,291.925 532.5,284.5C 533.833,284.5 534.5,285.167 534.5,286.5C 534.5,287.167 534.5,287.833 534.5,288.5C 540.346,289.817 546.346,289.817 552.5,288.5C 552.376,287.893 552.043,287.56 551.5,287.5C 549.833,282.167 548.167,276.833 546.5,271.5C 548.117,272.589 548.95,274.256 549,276.5C 549.333,276.167 549.667,275.833 550,275.5C 550.301,272.493 550.135,269.493 549.5,266.5C 555.412,278.896 560.745,291.563 565.5,304.5C 566.205,307.244 566.205,309.911 565.5,312.5C 563.343,311.152 562.01,309.152 561.5,306.5C 560.893,306.624 560.56,306.957 560.5,307.5C 558.351,302.359 556.017,297.192 553.5,292C 546.476,291.169 539.476,291.336 532.5,292.5C 529.963,299.072 527.296,305.572 524.5,312C 510.183,311.73 495.85,311.563 481.5,311.5C 481.351,310.448 481.517,309.448 482,308.5C 492.03,293.654 502.196,278.988 512.5,264.5C 513.404,263.791 513.737,262.791 513.5,261.5C 504.318,261.173 495.318,261.507 486.5,262.5C 485.504,262.414 484.671,262.748 484,263.5C 483.51,262.207 483.343,260.873 483.5,259.5C 496.167,259.5 508.833,259.5 521.5,259.5C 512.115,275.246 501.948,290.579 491,305.5C 490.517,306.448 490.351,307.448 490.5,308.5C 498.5,308.5 506.5,308.5 514.5,308.5 Z"/></g>
<g><path style="opacity:1" fill="#9b012f" d="M 549.5,265.5 C 549.5,265.833 549.5,266.167 549.5,266.5C 550.135,269.493 550.301,272.493 550,275.5C 549.667,275.833 549.333,276.167 549,276.5C 548.95,274.256 548.117,272.589 546.5,271.5C 546.5,269.833 546.5,268.167 546.5,266.5C 545.167,266.5 543.833,266.5 542.5,266.5C 542.337,264.143 542.503,261.81 543,259.5C 543.333,260.167 543.667,260.833 544,261.5C 544.718,260.549 545.551,260.383 546.5,261C 547.053,262.878 548.053,264.378 549.5,265.5 Z"/></g>
<g><path style="opacity:1" fill="#e9abc0" d="M 416.5,259.5 C 417.806,262.687 417.806,266.02 416.5,269.5C 415.893,269.376 415.56,269.043 415.5,268.5C 416.477,265.713 416.81,262.713 416.5,259.5 Z"/></g>
<g><path style="opacity:1" fill="#9a2843" d="M 549.5,265.5 C 548.053,264.378 547.053,262.878 546.5,261C 545.551,260.383 544.718,260.549 544,261.5C 543.667,260.833 543.333,260.167 543,259.5C 542.503,261.81 542.337,264.143 542.5,266.5C 543.833,266.5 545.167,266.5 546.5,266.5C 546.5,268.167 546.5,269.833 546.5,271.5C 545.442,270.4 544.608,269.066 544,267.5C 540.803,273.894 537.636,280.227 534.5,286.5C 534.5,285.167 533.833,284.5 532.5,284.5C 535.373,277.257 538.373,270.09 541.5,263C 541.05,261.715 540.383,260.548 539.5,259.5C 545.597,256.934 548.931,258.934 549.5,265.5 Z"/></g>
<g><path style="opacity:1" fill="#d1bdc3" d="M 430.5,262.5 C 430.838,279.358 431.838,296.025 433.5,312.5C 432.791,313.404 431.791,313.737 430.5,313.5C 430.5,296.5 430.5,279.5 430.5,262.5 Z"/></g>
<g><path style="opacity:1" fill="#8f1837" d="M 370.5,312.5 C 368.5,312.5 366.5,312.5 364.5,312.5C 364.5,310.167 364.5,307.833 364.5,305.5C 365.5,305.5 366.5,305.5 367.5,305.5C 368.649,293.529 368.816,278.863 368,261.5C 367.355,262.646 366.522,263.646 365.5,264.5C 366.167,265.167 366.833,265.833 367.5,266.5C 365.872,278.83 364.872,291.164 364.5,303.5C 364.829,289.656 364.496,275.99 363.5,262.5C 361.842,261.819 360.175,260.985 358.5,260C 364.167,259.333 369.833,259.333 375.5,260C 374.109,261.02 372.609,261.853 371,262.5C 370.5,279.163 370.333,295.83 370.5,312.5 Z"/></g>
<g><path style="opacity:1" fill="#9c223e" d="M 416.5,259.5 C 416.81,262.713 416.477,265.713 415.5,268.5C 415.171,266.009 414.171,263.843 412.5,262C 407.177,261.501 401.844,261.334 396.5,261.5C 396.5,269.167 396.5,276.833 396.5,284.5C 401.833,284.5 407.167,284.5 412.5,284.5C 412.5,285.5 412.5,286.5 412.5,287.5C 407.167,287.5 401.833,287.5 396.5,287.5C 396.334,295.174 396.5,302.841 397,310.5C 402.082,311.637 407.249,311.804 412.5,311C 416.502,310.16 418.502,307.66 418.5,303.5C 419.487,306.768 419.82,310.102 419.5,313.5C 416.167,313.5 412.833,313.5 409.5,313.5C 403.355,312.51 397.022,312.177 390.5,312.5C 390.83,295.658 390.497,278.992 389.5,262.5C 387.698,261.542 385.698,260.875 383.5,260.5C 383.47,259.503 383.97,258.836 385,258.5C 395.46,259.465 405.96,259.799 416.5,259.5 Z"/></g>
<g><path style="opacity:1" fill="#fbf0f4" d="M 546.5,271.5 C 548.167,276.833 549.833,282.167 551.5,287.5C 546.025,288.489 540.358,288.822 534.5,288.5C 534.5,287.833 534.5,287.167 534.5,286.5C 537.636,280.227 540.803,273.894 544,267.5C 544.608,269.066 545.442,270.4 546.5,271.5 Z"/></g>
<g><path style="opacity:1" fill="#9b002e" d="M 364.5,305.5 C 364.5,304.833 364.5,304.167 364.5,303.5C 364.872,291.164 365.872,278.83 367.5,266.5C 366.833,265.833 366.167,265.167 365.5,264.5C 366.522,263.646 367.355,262.646 368,261.5C 368.816,278.863 368.649,293.529 367.5,305.5C 366.5,305.5 365.5,305.5 364.5,305.5 Z"/></g>
<g><path style="opacity:1" fill="#fbb7cd" d="M 319.5,262.5 C 320.497,278.992 320.83,295.658 320.5,312.5C 322.5,312.5 324.5,312.5 326.5,312.5C 324.393,313.468 322.059,313.802 319.5,313.5C 319.5,296.5 319.5,279.5 319.5,262.5 Z"/></g>
<g><path style="opacity:1" fill="#981938" d="M 229.5,271.5 C 237.097,273.98 244.431,277.146 251.5,281C 258.14,285.871 260.306,292.371 258,300.5C 253.719,310.069 246.219,314.736 235.5,314.5C 232.408,314.493 229.408,313.993 226.5,313C 222.995,312.343 219.995,310.843 217.5,308.5C 218.167,308.167 218.833,307.833 219.5,307.5C 227.796,311.689 236.463,312.522 245.5,310C 255.169,304.36 256.502,297.36 249.5,289C 241.964,286.047 234.631,282.713 227.5,279C 224.261,277.264 221.927,274.764 220.5,271.5C 218.701,261.603 220.368,261.27 225.5,270.5C 226.689,271.429 228.022,271.762 229.5,271.5 Z"/></g>
<g><path style="opacity:1" fill="#981938" d="M 467.5,300.5 C 467.783,301.289 468.283,301.956 469,302.5C 469.5,289.171 469.667,275.837 469.5,262.5C 469.5,261.5 469.5,260.5 469.5,259.5C 472.187,259.336 474.854,259.503 477.5,260C 475.942,260.21 474.609,260.71 473.5,261.5C 472.503,278.325 472.17,295.325 472.5,312.5C 469.112,312.812 466.612,311.479 465,308.5C 455.244,294.656 445.244,280.989 435,267.5C 434.831,282.672 434.331,297.672 433.5,312.5C 431.838,296.025 430.838,279.358 430.5,262.5C 429.026,261.325 427.36,260.325 425.5,259.5C 429.459,258.34 433.459,258.173 437.5,259C 447.632,272.774 457.632,286.608 467.5,300.5 Z"/></g>
<g><path style="opacity:1" fill="#fbcfdc" d="M 468.5,262.5 C 468.833,262.5 469.167,262.5 469.5,262.5C 469.667,275.837 469.5,289.171 469,302.5C 468.283,301.956 467.783,301.289 467.5,300.5C 468.495,288.011 468.829,275.344 468.5,262.5 Z"/></g>
<g><path style="opacity:1" fill="#d3859b" d="M 363.5,262.5 C 364.496,275.99 364.829,289.656 364.5,303.5C 364.5,304.167 364.5,304.833 364.5,305.5C 364.5,307.833 364.5,310.167 364.5,312.5C 366.5,312.5 368.5,312.5 370.5,312.5C 368.393,313.468 366.059,313.802 363.5,313.5C 363.5,296.5 363.5,279.5 363.5,262.5 Z"/></g>
<g><path style="opacity:1" fill="#fee5f0" d="M 383.5,260.5 C 385.698,260.875 387.698,261.542 389.5,262.5C 389.5,279.5 389.5,296.5 389.5,313.5C 388.503,296.675 388.17,279.675 388.5,262.5C 386.302,262.88 384.635,262.213 383.5,260.5 Z"/></g>
<g><path style="opacity:1" fill="#ad4364" d="M 389.5,262.5 C 390.497,278.992 390.83,295.658 390.5,312.5C 397.022,312.177 403.355,312.51 409.5,313.5C 402.833,313.5 396.167,313.5 389.5,313.5C 389.5,296.5 389.5,279.5 389.5,262.5 Z"/></g>
<g><path style="opacity:1" fill="#930e33" d="M 326.5,312.5 C 324.5,312.5 322.5,312.5 320.5,312.5C 320.83,295.658 320.497,278.992 319.5,262.5C 318.026,261.325 316.36,260.325 314.5,259.5C 315,259.167 315.5,258.833 316,258.5C 324.465,259.291 332.965,259.791 341.5,260C 351.576,263.542 354.743,270.375 351,280.5C 345.908,289.136 338.741,291.636 329.5,288C 343.071,288.402 348.238,281.902 345,268.5C 340.454,262.359 334.454,260.359 327,262.5C 326.5,279.163 326.333,295.83 326.5,312.5 Z"/></g>
<g><path style="opacity:1" fill="#a84e6a" d="M 551.5,287.5 C 552.043,287.56 552.376,287.893 552.5,288.5C 546.346,289.817 540.346,289.817 534.5,288.5C 540.358,288.822 546.025,288.489 551.5,287.5 Z"/></g>
<g><path style="opacity:1" fill="#991e3c" d="M 282.5,258.5 C 285.972,257.963 288.805,258.963 291,261.5C 297.915,278.36 304.749,295.194 311.5,312C 309.17,313.345 306.837,313.512 304.5,312.5C 301.93,305.622 299.263,298.788 296.5,292C 289.5,291.333 282.5,291.333 275.5,292C 272.744,298.842 269.911,305.676 267,312.5C 265.644,313.38 264.144,313.714 262.5,313.5C 268.835,297.343 275.668,281.343 283,265.5C 283.556,263.115 283.39,260.782 282.5,258.5 Z"/></g>
<g><path style="opacity:1" fill="#fbf0f4" d="M 285.5,268.5 C 290.003,274.283 293.003,280.949 294.5,288.5C 288.833,288.5 283.167,288.5 277.5,288.5C 279.609,281.614 282.276,274.948 285.5,268.5 Z"/></g>
<g><path style="opacity:1" fill="#c88497" d="M 522.5,307.5 C 521.666,308.748 520.333,309.415 518.5,309.5C 516.955,309.489 515.622,309.156 514.5,308.5C 517.279,308.721 519.946,308.388 522.5,307.5 Z"/></g>
<g><path style="opacity:1" fill="#a04f64" d="M 32.5,291.5 C 32.5,298.167 32.5,304.833 32.5,311.5C 31.596,312.209 31.2627,313.209 31.5,314.5C 29.9605,312.162 29.2938,309.495 29.5,306.5C 30.2679,307.263 30.7679,308.263 31,309.5C 31.1724,303.319 31.6724,297.319 32.5,291.5 Z"/></g>
<g><path style="opacity:1" fill="#9c344d" d="M 565.5,304.5 C 567.31,307.145 568.31,310.145 568.5,313.5C 563.231,314.861 560.564,312.861 560.5,307.5C 560.56,306.957 560.893,306.624 561.5,306.5C 562.01,309.152 563.343,311.152 565.5,312.5C 566.205,309.911 566.205,307.244 565.5,304.5 Z"/></g>
<g><path style="opacity:1" fill="#a05168" d="M 396.5,324.5 C 398.886,325.373 400.886,326.873 402.5,329C 401.5,329.667 400.5,329.667 399.5,329C 397.561,328.092 396.561,326.592 396.5,324.5 Z"/></g>
<g><path style="opacity:1" fill="#f1b7ca" d="M 479.5,326.5 C 475.298,326.183 471.298,326.517 467.5,327.5C 466.957,327.44 466.624,327.107 466.5,326.5C 470.984,325.189 475.317,325.189 479.5,326.5 Z"/></g>
<g><path style="opacity:1" fill="#f0c9d6" d="M 222.5,341.5 C 222.167,341.5 221.833,341.5 221.5,341.5C 221.5,336.833 221.5,332.167 221.5,327.5C 221.301,326.178 219.634,326.178 216.5,327.5C 215.957,327.44 215.624,327.107 215.5,326.5C 218.438,325.511 221.438,324.844 224.5,324.5C 223.075,330.054 222.409,335.721 222.5,341.5 Z"/></g>
<g><path style="opacity:1" fill="#ba6682" d="M 335.5,332.5 C 334.508,332.328 333.842,332.662 333.5,333.5C 331.833,333.5 330.167,333.5 328.5,333.5C 327.791,332.596 326.791,332.263 325.5,332.5C 327.58,331.215 330.913,331.215 335.5,332.5 Z"/></g>
<g><path style="opacity:1" fill="#b25874" d="M 382.5,333.5 C 381.5,332.167 380.5,332.167 379.5,333.5C 376.606,333.042 374.106,333.709 372,335.5C 371.51,334.207 371.343,332.873 371.5,331.5C 377.868,331.17 384.202,331.504 390.5,332.5C 387.914,333.48 385.247,333.813 382.5,333.5 Z"/></g>
<g><path style="opacity:1" fill="#901f3e" d="M 261.5,346.5 C 261.783,347.289 262.283,347.956 263,348.5C 263.499,343.511 263.666,338.511 263.5,333.5C 264.211,335.735 264.545,338.735 264.5,342.5C 264.486,346.239 263.82,349.572 262.5,352.5C 259.078,347.322 255.411,342.322 251.5,337.5C 251.44,336.957 251.107,336.624 250.5,336.5C 249.671,341.802 249.171,347.136 249,352.5C 248.828,345.987 248.328,339.653 247.5,333.5C 247.389,332.883 247.056,332.383 246.5,332C 247.833,331.333 249.167,331.333 250.5,332C 254.054,336.953 257.721,341.786 261.5,346.5 Z"/></g>
<g><path style="opacity:1" fill="#a65a72" d="M 347.5,337.5 C 346.833,336.5 346.167,335.5 345.5,334.5C 346.058,333.21 347.058,332.377 348.5,332C 351.146,331.503 353.813,331.336 356.5,331.5C 356.762,332.978 356.429,334.311 355.5,335.5C 353.857,332.505 351.523,331.839 348.5,333.5C 347.571,334.689 347.238,336.022 347.5,337.5 Z"/></g>
<g><path style="opacity:1" fill="#972746" d="M 382.5,333.5 C 382.5,340.167 382.5,346.833 382.5,353.5C 381.5,353.5 380.5,353.5 379.5,353.5C 379.5,346.833 379.5,340.167 379.5,333.5C 380.5,332.167 381.5,332.167 382.5,333.5 Z"/></g>
<g><path style="opacity:1" fill="#ad5b76" d="M 438.5,333.5 C 438.5,334.167 438.5,334.833 438.5,335.5C 435.154,333.676 431.487,333.01 427.5,333.5C 427.44,332.957 427.107,332.624 426.5,332.5C 425.167,339.167 425.167,345.833 426.5,352.5C 427.107,352.376 427.44,352.043 427.5,351.5C 430.799,352.747 434.133,352.747 437.5,351.5C 437.833,351.5 438.167,351.5 438.5,351.5C 438.082,352.222 437.416,352.722 436.5,353C 432.514,353.499 428.514,353.666 424.5,353.5C 425.108,346.052 424.441,338.885 422.5,332C 427.167,331.333 431.833,331.333 436.5,332C 437.416,332.278 438.082,332.778 438.5,333.5 Z"/></g>
<g><path style="opacity:1" fill="#8d0b34" d="M 427.5,333.5 C 427.5,339.5 427.5,345.5 427.5,351.5C 427.44,352.043 427.107,352.376 426.5,352.5C 425.167,345.833 425.167,339.167 426.5,332.5C 427.107,332.624 427.44,332.957 427.5,333.5 Z"/></g>
<g><path style="opacity:1" fill="#faf2f5" d="M 427.5,333.5 C 431.487,333.01 435.154,333.676 438.5,335.5C 441.356,340.965 441.022,346.298 437.5,351.5C 434.133,352.747 430.799,352.747 427.5,351.5C 427.5,345.5 427.5,339.5 427.5,333.5 Z"/></g>
<g><path style="opacity:1" fill="#982b4a" d="M 448.5,332.5 C 450.628,331.371 452.961,331.204 455.5,332C 455,332.5 454.5,333 454,333.5C 453.5,340.158 453.334,346.825 453.5,353.5C 452.5,353.5 451.5,353.5 450.5,353.5C 450.666,346.825 450.5,340.158 450,333.5C 449.617,332.944 449.117,332.611 448.5,332.5 Z"/></g>
<g><path style="opacity:1" fill="#f2c3cf" d="M 262.5,333.5 C 262.833,333.5 263.167,333.5 263.5,333.5C 263.666,338.511 263.499,343.511 263,348.5C 262.283,347.956 261.783,347.289 261.5,346.5C 262.485,342.366 262.818,338.032 262.5,333.5 Z"/></g>
<g><path style="opacity:1" fill="#a02d4c" d="M 271.5,332.5 C 273.628,331.371 275.961,331.204 278.5,332C 278,332.5 277.5,333 277,333.5C 276.5,340.158 276.334,346.825 276.5,353.5C 275.5,353.5 274.5,353.5 273.5,353.5C 273.666,346.825 273.5,340.158 273,333.5C 272.617,332.944 272.117,332.611 271.5,332.5 Z"/></g>
<g><path style="opacity:1" fill="#be6c85" d="M 467.5,327.5 C 471.298,326.517 475.298,326.183 479.5,326.5C 480.492,326.328 481.158,326.662 481.5,327.5C 480.833,327.5 480.5,327.833 480.5,328.5C 478.283,327.631 475.95,327.298 473.5,327.5C 473.5,331.5 473.5,335.5 473.5,339.5C 472.834,335.647 472.167,331.647 471.5,327.5C 470.167,335.833 470.167,344.167 471.5,352.5C 472.167,348.687 472.834,345.021 473.5,341.5C 473.5,345.5 473.5,349.5 473.5,353.5C 472.167,353.5 470.833,353.5 469.5,353.5C 470.136,344.435 469.47,335.769 467.5,327.5 Z"/></g>
<g><path style="opacity:1" fill="#962241" d="M 473.5,339.5 C 476.593,340.627 479.093,339.627 481,336.5C 481.722,333.739 481.555,331.073 480.5,328.5C 480.5,327.833 480.833,327.5 481.5,327.5C 483.714,328.392 484.714,330.058 484.5,332.5C 484.101,335.797 482.768,338.63 480.5,341C 482.45,345.067 484.783,348.9 487.5,352.5C 486.635,353.583 485.635,353.749 484.5,353C 481.795,349.758 479.461,346.258 477.5,342.5C 476.311,341.571 474.978,341.238 473.5,341.5C 472.834,345.021 472.167,348.687 471.5,352.5C 470.167,344.167 470.167,335.833 471.5,327.5C 472.167,331.647 472.834,335.647 473.5,339.5 Z"/></g>
<g><path style="opacity:1" fill="#f9f2f7" d="M 480.5,328.5 C 481.555,331.073 481.722,333.739 481,336.5C 479.093,339.627 476.593,340.627 473.5,339.5C 473.5,335.5 473.5,331.5 473.5,327.5C 475.95,327.298 478.283,327.631 480.5,328.5 Z"/></g>
<g><path style="opacity:1" fill="#ab5670" d="M 309.5,341.5 C 308.834,338.642 308.167,335.642 307.5,332.5C 306.893,332.624 306.56,332.957 306.5,333.5C 306.167,333.5 305.833,333.5 305.5,333.5C 304.116,332.199 302.616,332.199 301,333.5C 298.999,339.492 296.499,345.158 293.5,350.5C 292.833,349.833 292.167,349.167 291.5,348.5C 293.093,347.652 294.26,346.319 295,344.5C 296.02,340.958 297.187,337.458 298.5,334C 298.355,333.228 298.022,332.561 297.5,332C 304.158,331.5 310.825,331.334 317.5,331.5C 317.657,332.873 317.49,334.207 317,335.5C 314.894,333.709 312.394,333.042 309.5,333.5C 309.5,336.167 309.5,338.833 309.5,341.5 Z"/></g>
<g><path style="opacity:1" fill="#9a0e34" d="M 543.5,336.5 C 543.5,338.167 543.5,339.833 543.5,341.5C 543.299,344.728 543.633,347.895 544.5,351C 543.824,352.683 542.824,352.85 541.5,351.5C 541.5,348.5 541.5,345.5 541.5,342.5C 541.259,340.102 541.926,338.102 543.5,336.5 Z"/></g>
<g><path style="opacity:1" fill="#b87487" d="M 309.5,343.5 C 309.5,342.833 309.5,342.167 309.5,341.5C 311.821,341.771 313.821,341.104 315.5,339.5C 316.833,341.5 316.833,343.5 315.5,345.5C 313.821,343.896 311.821,343.229 309.5,343.5 Z"/></g>
<g><path style="opacity:1" fill="#911b3c" d="M 309.5,341.5 C 309.5,342.167 309.5,342.833 309.5,343.5C 309.5,346.167 309.5,348.833 309.5,351.5C 308.791,352.404 307.791,352.737 306.5,352.5C 306.5,346.167 306.5,339.833 306.5,333.5C 306.56,332.957 306.893,332.624 307.5,332.5C 308.167,335.642 308.834,338.642 309.5,341.5 Z"/></g>
<g><path style="opacity:1" fill="#982946" d="M 325.5,332.5 C 326.791,332.263 327.791,332.596 328.5,333.5C 328.5,336.5 328.5,339.5 328.5,342.5C 330.722,342.822 332.556,342.155 334,340.5C 334.796,337.961 334.629,335.628 333.5,333.5C 333.842,332.662 334.508,332.328 335.5,332.5C 338.151,336.468 337.818,340.301 334.5,344C 336.494,346.983 338.494,349.983 340.5,353C 339.5,353.667 338.5,353.667 337.5,353C 334.992,349.662 332.325,346.495 329.5,343.5C 328.513,346.768 328.18,350.102 328.5,353.5C 327.5,353.5 326.5,353.5 325.5,353.5C 325.5,346.5 325.5,339.5 325.5,332.5 Z"/></g>
<g><path style="opacity:1" fill="#fcecf4" d="M 328.5,333.5 C 330.167,333.5 331.833,333.5 333.5,333.5C 334.629,335.628 334.796,337.961 334,340.5C 332.556,342.155 330.722,342.822 328.5,342.5C 328.5,339.5 328.5,336.5 328.5,333.5 Z"/></g>
<g><path style="opacity:1" fill="#962543" d="M 291.5,348.5 C 292.167,349.167 292.833,349.833 293.5,350.5C 293.5,351.5 293.5,352.5 293.5,353.5C 292.5,353.5 291.5,353.5 290.5,353.5C 288.734,345.803 285.734,338.636 281.5,332C 283.112,331.28 284.612,331.446 286,332.5C 288.536,337.607 290.369,342.94 291.5,348.5 Z"/></g>
<g><path style="opacity:1" fill="#eda3bc" d="M 247.5,333.5 C 248.328,339.653 248.828,345.987 249,352.5C 249.171,347.136 249.671,341.802 250.5,336.5C 251.107,336.624 251.44,336.957 251.5,337.5C 250.512,342.64 250.179,347.974 250.5,353.5C 249.5,353.5 248.5,353.5 247.5,353.5C 247.5,346.833 247.5,340.167 247.5,333.5 Z"/></g>
<g><path style="opacity:1" fill="#a03a53" d="M 345.5,334.5 C 346.167,335.5 346.833,336.5 347.5,337.5C 349.428,339.474 351.761,340.974 354.5,342C 358.619,346.073 358.285,349.74 353.5,353C 342.833,352.995 342.833,352.328 353.5,351C 354.833,349.333 354.833,347.667 353.5,346C 348.936,344.27 345.936,341.104 344.5,336.5C 344.543,335.584 344.876,334.917 345.5,334.5 Z"/></g>
<g><path style="opacity:1" fill="#9b314c" d="M 406.5,350.5 C 405.651,344.747 402.317,342.914 396.5,345C 395.536,346.725 394.869,348.559 394.5,350.5C 393.842,351.398 393.176,352.398 392.5,353.5C 391.386,352.277 391.219,350.944 392,349.5C 394.873,343.525 397.373,337.525 399.5,331.5C 400.822,331.33 401.989,331.663 403,332.5C 406.009,339.363 408.509,346.363 410.5,353.5C 409.5,353.5 408.5,353.5 407.5,353.5C 407.737,352.209 407.404,351.209 406.5,350.5 Z"/></g>
<g><path style="opacity:1" fill="#fcdee9" d="M 406.5,350.5 C 404.896,349.713 404.229,348.38 404.5,346.5C 402.234,346.141 400.401,346.808 399,348.5C 398.586,348.043 398.086,347.709 397.5,347.5C 396.712,348.77 395.712,349.77 394.5,350.5C 394.869,348.559 395.536,346.725 396.5,345C 402.317,342.914 405.651,344.747 406.5,350.5 Z"/></g>
<g><path style="opacity:1" fill="#f8e8ed" d="M 399.5,336.5 C 400.376,336.369 401.043,336.702 401.5,337.5C 404.892,342.724 403.559,344.39 397.5,342.5C 398.747,340.677 399.414,338.677 399.5,336.5 Z"/></g>
<g><path style="opacity:1" fill="#952642" d="M 508.5,351.5 C 508.167,351.5 507.833,351.5 507.5,351.5C 511.786,345.259 511.453,339.426 506.5,334C 501.473,331.38 497.64,332.547 495,337.5C 494.151,342.026 494.651,346.36 496.5,350.5C 496.5,351.167 496.167,351.5 495.5,351.5C 494.115,350.426 492.949,349.093 492,347.5C 489.69,338.5 493.023,333.167 502,331.5C 513.282,333.733 516.282,340.067 511,350.5C 510.329,351.252 509.496,351.586 508.5,351.5 Z"/></g>
<g><path style="opacity:1" fill="#fbf5f8" d="M 507.5,351.5 C 503.731,351.756 500.064,351.423 496.5,350.5C 494.651,346.36 494.151,342.026 495,337.5C 497.64,332.547 501.473,331.38 506.5,334C 511.453,339.426 511.786,345.259 507.5,351.5 Z"/></g>
<g><path style="opacity:1" fill="#9b2c4c" d="M 361.5,332.5 C 363.364,331.207 365.364,331.207 367.5,332.5C 366.536,339.442 366.203,346.442 366.5,353.5C 365.5,353.5 364.5,353.5 363.5,353.5C 363.666,346.825 363.5,340.158 363,333.5C 362.617,332.944 362.117,332.611 361.5,332.5 Z"/></g>
<g><path style="opacity:1" fill="#931e3f" d="M 438.5,333.5 C 442.334,334.996 444.001,337.829 443.5,342C 443.671,345.129 442.838,347.963 441,350.5C 440.329,351.252 439.496,351.586 438.5,351.5C 438.167,351.5 437.833,351.5 437.5,351.5C 441.022,346.298 441.356,340.965 438.5,335.5C 438.5,334.833 438.5,334.167 438.5,333.5 Z"/></g>
<g><path style="opacity:1" fill="#ca718d" d="M 262.5,352.5 C 263.82,349.572 264.486,346.239 264.5,342.5C 264.545,338.735 264.211,335.735 263.5,333.5C 263.167,333.5 262.833,333.5 262.5,333.5C 262.082,332.778 261.416,332.278 260.5,332C 262.833,331.333 265.167,331.333 267.5,332C 265.559,338.885 264.892,346.052 265.5,353.5C 264.209,353.737 263.209,353.404 262.5,352.5 Z"/></g>
<g><path style="opacity:1" fill="#9f3652" d="M 543.5,336.5 C 541.926,338.102 541.259,340.102 541.5,342.5C 540.691,340.708 540.191,338.708 540,336.5C 537.744,341.09 535.577,345.756 533.5,350.5C 532.675,351.386 531.675,351.719 530.5,351.5C 528.825,346.658 526.658,341.991 524,337.5C 523.433,342.834 522.933,348.167 522.5,353.5C 521.5,353.5 520.5,353.5 519.5,353.5C 519.612,348.489 519.946,343.489 520.5,338.5C 520.41,336.036 519.743,333.87 518.5,332C 520.441,331.257 522.274,331.424 524,332.5C 526.564,337.96 529.397,343.294 532.5,348.5C 534.738,343.024 537.238,337.691 540,332.5C 541.726,331.424 543.559,331.257 545.5,332C 543.893,333.049 543.227,334.549 543.5,336.5 Z"/></g>
<g><path style="opacity:1" fill="#9b324d" d="M 563.5,346.5 C 562.486,345.235 560.986,344.569 559,344.5C 557.293,344.508 555.793,344.842 554.5,345.5C 553.577,347.767 552.744,350.1 552,352.5C 551.107,353.711 550.274,353.711 549.5,352.5C 552.474,345.563 555.141,338.563 557.5,331.5C 558.822,331.33 559.989,331.663 561,332.5C 563.931,339.126 566.764,345.792 569.5,352.5C 568.311,353.429 566.978,353.762 565.5,353.5C 565.606,350.921 564.939,348.588 563.5,346.5 Z"/></g>
<g><path style="opacity:1" fill="#f4afc5" d="M 554.5,345.5 C 555.793,344.842 557.293,344.508 559,344.5C 560.986,344.569 562.486,345.235 563.5,346.5C 560.609,345.597 557.609,345.264 554.5,345.5 Z"/></g>
<g><path style="opacity:1" fill="#f9e1eb" d="M 558.5,336.5 C 560.834,338.176 561.834,340.509 561.5,343.5C 559.833,343.5 558.167,343.5 556.5,343.5C 556.767,341.035 557.434,338.701 558.5,336.5 Z"/></g>
<g><path style="opacity:1" fill="#a44460" d="M 216.5,327.5 C 219.634,326.178 221.301,326.178 221.5,327.5C 220.2,329.223 219.533,331.39 219.5,334C 219.594,337.888 220.094,341.721 221,345.5C 221.49,344.207 221.657,342.873 221.5,341.5C 221.833,341.5 222.167,341.5 222.5,341.5C 221.736,349.906 225.402,353.073 233.5,351C 236.941,346.824 238.274,341.991 237.5,336.5C 237.446,333.061 236.78,329.894 235.5,327C 237.5,326.333 239.5,326.333 241.5,327C 241,327.5 240.5,328 240,328.5C 239.879,335.246 239.212,341.913 238,348.5C 236.2,352.235 233.2,353.902 229,353.5C 225.455,353.961 222.788,352.628 221,349.5C 219.383,341.956 217.883,334.623 216.5,327.5 Z"/></g>
<g><path style="opacity:1" fill="#900531" d="M 221.5,327.5 C 221.5,332.167 221.5,336.833 221.5,341.5C 221.657,342.873 221.49,344.207 221,345.5C 220.094,341.721 219.594,337.888 219.5,334C 219.533,331.39 220.2,329.223 221.5,327.5 Z"/></g>
<g><path style="opacity:1" fill="#c77f96" d="M 305.5,333.5 C 305.833,333.5 306.167,333.5 306.5,333.5C 306.5,339.833 306.5,346.167 306.5,352.5C 307.791,352.737 308.791,352.404 309.5,351.5C 312.711,351.988 315.544,351.321 318,349.5C 318.49,350.793 318.657,352.127 318.5,353.5C 314.167,353.5 309.833,353.5 305.5,353.5C 305.5,346.833 305.5,340.167 305.5,333.5 Z"/></g>
<g><path style="opacity:1" fill="#ae6b82" d="M 496.5,350.5 C 500.064,351.423 503.731,351.756 507.5,351.5C 507.833,351.5 508.167,351.5 508.5,351.5C 506.71,352.997 504.544,353.664 502,353.5C 499.456,353.664 497.29,352.997 495.5,351.5C 496.167,351.5 496.5,351.167 496.5,350.5 Z"/></g>
<g><path style="opacity:1" fill="#b25f78" d="M 543.5,341.5 C 544.617,345.295 545.283,349.295 545.5,353.5C 543.517,353.843 542.183,353.176 541.5,351.5C 542.824,352.85 543.824,352.683 544.5,351C 543.633,347.895 543.299,344.728 543.5,341.5 Z"/></g>
<g><path style="opacity:1" fill="#f6d9e1" d="M 32.5,311.5 C 32.5,304.833 32.5,298.167 32.5,291.5C 34.4952,269.005 43.8286,250.172 60.5,235C 78.8313,220.425 98.8313,217.758 120.5,227C 142.902,239.253 156.402,258.086 161,283.5C 165.82,312.713 158.32,338.046 138.5,359.5C 114.191,381.22 88.5245,383.054 61.5,365C 45.3885,350.607 35.7219,332.774 32.5,311.5 Z"/></g>
<g><path style="opacity:1" fill="#dd96a9" d="M 124.5,344.5 C 124.764,348.393 125.431,352.226 126.5,356C 126.167,356.833 125.833,357.667 125.5,358.5C 124.893,358.376 124.56,358.043 124.5,357.5C 125.043,357.44 125.376,357.107 125.5,356.5C 124.757,355.818 124.091,355.151 123.5,354.5C 124.043,354.44 124.376,354.107 124.5,353.5C 124.156,350.964 123.156,348.797 121.5,347C 122.373,345.955 123.373,345.122 124.5,344.5 Z"/></g>
<g><path style="opacity:1" fill="#f8d2dd" d="M 119.5,351.5 C 120.436,352.974 121.77,353.974 123.5,354.5C 124.091,355.151 124.757,355.818 125.5,356.5C 125.376,357.107 125.043,357.44 124.5,357.5C 123.833,357.167 123.167,356.833 122.5,356.5C 120.41,354.61 118.077,352.943 115.5,351.5C 116.808,350.374 118.142,350.374 119.5,351.5 Z"/></g>
<g><path style="opacity:1" fill="#980a30" d="M 159.5,294.5 C 159.963,301.997 159.296,309.331 157.5,316.5C 156.596,317.209 156.263,318.209 156.5,319.5C 155.5,319.5 154.5,319.5 153.5,319.5C 153.62,316.795 152.62,316.128 150.5,317.5C 149.416,316.335 148.583,315.002 148,313.5C 144.38,315.183 140.546,315.85 136.5,315.5C 136.286,317.144 136.62,318.644 137.5,320C 136.324,321.914 135.324,321.748 134.5,319.5C 134.167,320.333 133.833,321.167 133.5,322C 134.515,325.144 134.515,328.311 133.5,331.5C 132.248,333.001 131.248,334.668 130.5,336.5C 130.611,337.117 130.944,337.617 131.5,338C 127.798,337.71 125.298,339.21 124,342.5C 122.829,340.384 121.329,339.718 119.5,340.5C 120.491,343.844 121.491,347.178 122.5,350.5C 122.333,351.167 122.167,351.833 122,352.5C 121.329,351.748 120.496,351.414 119.5,351.5C 118.142,350.374 116.808,350.374 115.5,351.5C 118.077,352.943 120.41,354.61 122.5,356.5C 121.993,357.859 120.993,358.859 119.5,359.5C 123.234,360.728 123.401,362.395 120,364.5C 117.985,363.158 115.818,362.658 113.5,363C 115.373,364.085 117.04,365.418 118.5,367C 115.833,367.667 115.833,368.333 118.5,369C 115.826,369.67 113.493,370.837 111.5,372.5C 93.2164,377.602 76.5498,374.102 61.5,362C 54.4398,355.455 48.7731,347.955 44.5,339.5C 45.4485,336.128 45.4485,332.795 44.5,329.5C 44.8333,329.167 45.1667,328.833 45.5,328.5C 46.5207,329.901 47.5207,331.235 48.5,332.5C 48.3691,333.376 48.7025,334.043 49.5,334.5C 51.7388,333.212 54.0721,332.212 56.5,331.5C 58.7099,331.894 60.0432,333.227 60.5,335.5C 59.3716,339.09 57.705,342.423 55.5,345.5C 59.6549,346.076 63.6549,345.242 67.5,343C 64.5,343.333 61.5,343.667 58.5,344C 60.2687,341.3 61.602,338.466 62.5,335.5C 61.0983,333.125 59.765,330.791 58.5,328.5C 58.0113,327.005 57.3446,325.671 56.5,324.5C 56.7678,322.901 56.4345,321.568 55.5,320.5C 54.3409,318.623 52.6742,318.123 50.5,319C 49.2766,321.052 48.2766,323.219 47.5,325.5C 46.0652,324.053 45.0652,322.386 44.5,320.5C 43.4138,320.38 42.7472,319.713 42.5,318.5C 43.3118,316.377 43.9785,314.21 44.5,312C 44.4907,310.596 43.9907,309.43 43,308.5C 42.1304,313.24 40.9637,317.906 39.5,322.5C 36.6732,316.408 36.0066,310.074 37.5,303.5C 38.208,316.49 39.8747,316.49 42.5,303.5C 39.1881,303.735 38.3547,302.735 40,300.5C 41,301.167 42,301.833 43,302.5C 43.7594,301.354 44.4261,300.354 45,299.5C 46.9955,301.23 49.1621,302.563 51.5,303.5C 58.0607,307.979 65.394,310.312 73.5,310.5C 72.7981,320.377 75.1314,329.377 80.5,337.5C 81.7682,339.047 83.4348,340.047 85.5,340.5C 86.4408,342.05 87.1075,343.716 87.5,345.5C 88.5659,346.692 89.3992,346.359 90,344.5C 90.2355,346.119 91.0689,347.119 92.5,347.5C 92.7828,348.289 93.2828,348.956 94,349.5C 94.4935,347.866 94.6602,346.199 94.5,344.5C 94.188,334.759 94.8547,325.092 96.5,315.5C 97.8425,314.098 98.6758,314.431 99,316.5C 99.1805,319.695 99.6805,322.695 100.5,325.5C 101.753,332.813 101.753,340.146 100.5,347.5C 99.9569,347.56 99.6236,347.893 99.5,348.5C 102.85,350.897 105.683,350.23 108,346.5C 108.483,345.552 108.649,344.552 108.5,343.5C 108.328,342.508 108.662,341.842 109.5,341.5C 110.74,340.341 112.074,339.341 113.5,338.5C 116.121,335.317 117.788,331.65 118.5,327.5C 120.04,325.162 120.706,322.495 120.5,319.5C 121.035,316.366 122.035,313.366 123.5,310.5C 128.618,309.571 133.618,308.238 138.5,306.5C 139.93,306.579 141.264,306.246 142.5,305.5C 142.833,305.833 143.167,306.167 143.5,306.5C 142.5,307.167 141.5,307.833 140.5,308.5C 141.365,309.583 142.365,309.749 143.5,309C 144.411,304.414 146.911,300.914 151,298.5C 151.492,297.451 151.326,296.451 150.5,295.5C 152.588,294.511 154.588,294.844 156.5,296.5C 157.265,295.388 158.265,294.721 159.5,294.5 Z"/></g>
<g><path style="opacity:1" fill="#f0cad5" d="M 78.5,352.5 C 79.7562,352.461 80.7562,352.961 81.5,354C 74.1717,365.503 73.1717,365.003 78.5,352.5 Z"/></g>
<g><path style="opacity:1" fill="#efbecb" d="M 71.5,347.5 C 75.254,348.828 76.4207,351.494 75,355.5C 71.4123,359.393 67.7456,359.393 64,355.5C 63.3333,354.5 63.3333,353.5 64,352.5C 66.0937,350.079 67.7604,347.412 69,344.5C 70.045,345.373 70.8783,346.373 71.5,347.5 Z"/></g>
<g><path style="opacity:1" fill="#931133" d="M 71.5,347.5 C 75.2508,353.642 73.5841,356.475 66.5,356C 66.3897,352.416 68.0563,349.582 71.5,347.5 Z"/></g>
<g><path style="opacity:1" fill="#f3c8d3" d="M 93.5,329.5 C 93.1795,334.695 93.5128,339.695 94.5,344.5C 94.6602,346.199 94.4935,347.866 94,349.5C 93.2828,348.956 92.7828,348.289 92.5,347.5C 91.4336,345.299 90.767,342.965 90.5,340.5C 91.1174,340.611 91.6174,340.944 92,341.5C 92.1762,337.312 92.6762,333.312 93.5,329.5 Z"/></g>
<g><path style="opacity:1" fill="#f0ced8" d="M 109.5,341.5 C 108.662,341.842 108.328,342.508 108.5,343.5C 107.105,345.054 106.439,344.721 106.5,342.5C 108.07,334.253 108.903,325.92 109,317.5C 110.11,315.963 111.61,315.297 113.5,315.5C 113.461,324.397 112.128,333.064 109.5,341.5 Z"/></g>
<g><path style="opacity:1" fill="#f4c0d0" d="M 60.5,335.5 C 61.1667,335.5 61.8333,335.5 62.5,335.5C 61.602,338.466 60.2687,341.3 58.5,344C 61.5,343.667 64.5,343.333 67.5,343C 63.6549,345.242 59.6549,346.076 55.5,345.5C 57.705,342.423 59.3716,339.09 60.5,335.5 Z"/></g>
<g><path style="opacity:1" fill="#961334" d="M 157.5,316.5 C 153.795,340.757 141.129,358.591 119.5,370C 116.904,371.136 114.237,371.969 111.5,372.5C 113.493,370.837 115.826,369.67 118.5,369C 115.833,368.333 115.833,367.667 118.5,367C 117.04,365.418 115.373,364.085 113.5,363C 115.818,362.658 117.985,363.158 120,364.5C 123.401,362.395 123.234,360.728 119.5,359.5C 120.993,358.859 121.993,357.859 122.5,356.5C 123.167,356.833 123.833,357.167 124.5,357.5C 124.56,358.043 124.893,358.376 125.5,358.5C 125.833,357.667 126.167,356.833 126.5,356C 125.431,352.226 124.764,348.393 124.5,344.5C 123.373,345.122 122.373,345.955 121.5,347C 123.156,348.797 124.156,350.964 124.5,353.5C 124.376,354.107 124.043,354.44 123.5,354.5C 121.77,353.974 120.436,352.974 119.5,351.5C 120.496,351.414 121.329,351.748 122,352.5C 122.167,351.833 122.333,351.167 122.5,350.5C 121.491,347.178 120.491,343.844 119.5,340.5C 121.329,339.718 122.829,340.384 124,342.5C 125.298,339.21 127.798,337.71 131.5,338C 130.944,337.617 130.611,337.117 130.5,336.5C 134.263,337.252 137.596,338.919 140.5,341.5C 143.295,339.485 143.961,336.985 142.5,334C 139.487,333.091 136.487,332.258 133.5,331.5C 134.515,328.311 134.515,325.144 133.5,322C 133.833,321.167 134.167,320.333 134.5,319.5C 135.324,321.748 136.324,321.914 137.5,320C 136.62,318.644 136.286,317.144 136.5,315.5C 140.546,315.85 144.38,315.183 148,313.5C 148.583,315.002 149.416,316.335 150.5,317.5C 152.62,316.128 153.62,316.795 153.5,319.5C 154.5,319.5 155.5,319.5 156.5,319.5C 156.263,318.209 156.596,317.209 157.5,316.5 Z"/></g>
<g><path style="opacity:1" fill="#cd6f89" d="M 131.5,345.5 C 133.833,345.5 136.167,345.5 138.5,345.5C 136.5,346.167 134.5,346.833 132.5,347.5C 131.662,347.158 131.328,346.492 131.5,345.5 Z"/></g>
<g><path style="opacity:1" fill="#f6d9e0" d="M 127.5,341.5 C 127.833,343.833 129.167,345.167 131.5,345.5C 131.328,346.492 131.662,347.158 132.5,347.5C 133.573,348.251 133.74,349.251 133,350.5C 130.699,347.612 127.866,345.612 124.5,344.5C 125.167,343.167 126.167,342.167 127.5,341.5 Z"/></g>
<g><path style="opacity:1" fill="#a22d45" d="M 127.5,341.5 C 130.5,341.167 131.833,342.5 131.5,345.5C 129.167,345.167 127.833,343.833 127.5,341.5 Z"/></g>
<g><path style="opacity:1" fill="#eecad5" d="M 138.5,345.5 C 136.167,345.5 133.833,345.5 131.5,345.5C 131.833,342.5 130.5,341.167 127.5,341.5C 130.205,338.684 132.205,339.351 133.5,343.5C 135.291,344.17 136.958,344.837 138.5,345.5 Z"/></g>
<g><path style="opacity:1" fill="#e4b6c2" d="M 133.5,331.5 C 136.487,332.258 139.487,333.091 142.5,334C 143.961,336.985 143.295,339.485 140.5,341.5C 137.596,338.919 134.263,337.252 130.5,336.5C 131.248,334.668 132.248,333.001 133.5,331.5 Z"/></g>
<g><path style="opacity:1" fill="#971c38" d="M 137.5,335.5 C 138.833,335.5 140.167,335.5 141.5,335.5C 141.5,336.5 141.5,337.5 141.5,338.5C 139.027,338.912 137.694,337.912 137.5,335.5 Z"/></g>
<g><path style="opacity:1" fill="#aa2444" d="M 133.5,333.5 C 134.675,333.281 135.675,333.614 136.5,334.5C 134.948,335.798 133.948,335.465 133.5,333.5 Z"/></g>
<g><path style="opacity:1" fill="#a8415b" d="M 81.5,327.5 C 82.969,331.687 84.3023,336.02 85.5,340.5C 83.4348,340.047 81.7682,339.047 80.5,337.5C 81.0431,337.44 81.3764,337.107 81.5,336.5C 80.5435,334.925 79.8769,333.258 79.5,331.5C 80.1174,331.611 80.6174,331.944 81,332.5C 81.4935,330.866 81.6602,329.199 81.5,327.5 Z"/></g>
<g><path style="opacity:1" fill="#f3d1db" d="M 136.5,325.5 C 148.424,331.911 148.09,332.577 135.5,327.5C 135.863,326.817 136.196,326.15 136.5,325.5 Z"/></g>
<g><path style="opacity:1" fill="#f9e8ed" d="M 87.5,345.5 C 87.1075,343.716 86.4408,342.05 85.5,340.5C 84.3023,336.02 82.969,331.687 81.5,327.5C 81.5,323.5 81.5,319.5 81.5,315.5C 82.8221,315.33 83.9887,315.663 85,316.5C 85.1288,325.641 86.2954,334.641 88.5,343.5C 88.4573,344.416 88.1239,345.083 87.5,345.5 Z"/></g>
<g><path style="opacity:1" fill="#f2cbd5" d="M 117.5,309.5 C 117.177,315.69 117.51,321.69 118.5,327.5C 117.788,331.65 116.121,335.317 113.5,338.5C 112.957,338.44 112.624,338.107 112.5,337.5C 114.173,333.648 115.339,329.648 116,325.5C 116.173,319.984 116.673,314.651 117.5,309.5 Z"/></g>
<g><path style="opacity:1" fill="#961636" d="M 38.5,274.5 C 38.3163,278.079 38.983,281.413 40.5,284.5C 39.475,284.897 39.3083,285.563 40,286.5C 49.1442,291.578 58.9775,294.078 69.5,294C 74.497,297.143 77.6636,301.643 79,307.5C 81.2513,309.377 83.7513,310.877 86.5,312C 88.0488,313.214 89.2155,314.714 90,316.5C 89.2789,324.504 89.4455,332.504 90.5,340.5C 90.767,342.965 91.4336,345.299 92.5,347.5C 91.0689,347.119 90.2355,346.119 90,344.5C 89.3992,346.359 88.5659,346.692 87.5,345.5C 88.1239,345.083 88.4573,344.416 88.5,343.5C 86.2954,334.641 85.1288,325.641 85,316.5C 83.9887,315.663 82.8221,315.33 81.5,315.5C 81.5,319.5 81.5,323.5 81.5,327.5C 81.6602,329.199 81.4935,330.866 81,332.5C 80.6174,331.944 80.1174,331.611 79.5,331.5C 77.9834,324.268 77.1501,316.935 77,309.5C 76.1667,308.667 75.3333,307.833 74.5,307C 65.0024,306.627 56.3357,303.794 48.5,298.5C 48.1667,298.667 47.8333,298.833 47.5,299C 49.0414,300.371 50.3747,301.871 51.5,303.5C 49.1621,302.563 46.9955,301.23 45,299.5C 44.4261,300.354 43.7594,301.354 43,302.5C 42,301.833 41,301.167 40,300.5C 38.3547,302.735 39.1881,303.735 42.5,303.5C 39.8747,316.49 38.208,316.49 37.5,303.5C 36.0066,310.074 36.6732,316.408 39.5,322.5C 40.9637,317.906 42.1304,313.24 43,308.5C 43.9907,309.43 44.4907,310.596 44.5,312C 43.9785,314.21 43.3118,316.377 42.5,318.5C 42.7472,319.713 43.4138,320.38 44.5,320.5C 43.9421,326.555 46.1088,327.888 51,324.5C 51.5415,318.337 52.8748,318.003 55,323.5C 55.4828,322.552 55.6495,321.552 55.5,320.5C 56.4345,321.568 56.7678,322.901 56.5,324.5C 55.7611,324.369 55.0944,324.536 54.5,325C 56.4206,326.241 56.754,327.741 55.5,329.5C 53.2612,330.788 50.9279,331.788 48.5,332.5C 47.5207,331.235 46.5207,329.901 45.5,328.5C 45.1667,328.833 44.8333,329.167 44.5,329.5C 45.4485,332.795 45.4485,336.128 44.5,339.5C 36.2948,323.944 33.1281,307.277 35,289.5C 34.975,284.095 36.1417,279.095 38.5,274.5 Z"/></g>
<g><path style="opacity:1" fill="#ce768e" d="M 58.5,328.5 C 59.765,330.791 61.0983,333.125 62.5,335.5C 61.8333,335.5 61.1667,335.5 60.5,335.5C 60.0432,333.227 58.7099,331.894 56.5,331.5C 57.5511,330.778 58.2178,329.778 58.5,328.5 Z"/></g>
<g><path style="opacity:1" fill="#f4c9d4" d="M 56.5,324.5 C 57.3446,325.671 58.0113,327.005 58.5,328.5C 58.2178,329.778 57.5511,330.778 56.5,331.5C 54.0721,332.212 51.7388,333.212 49.5,334.5C 48.7025,334.043 48.3691,333.376 48.5,332.5C 50.9279,331.788 53.2612,330.788 55.5,329.5C 56.754,327.741 56.4206,326.241 54.5,325C 55.0944,324.536 55.7611,324.369 56.5,324.5 Z"/></g>
<g><path style="opacity:1" fill="#f2b6c9" d="M 55.5,320.5 C 55.6495,321.552 55.4828,322.552 55,323.5C 52.8748,318.003 51.5415,318.337 51,324.5C 46.1088,327.888 43.9421,326.555 44.5,320.5C 45.0652,322.386 46.0652,324.053 47.5,325.5C 48.2766,323.219 49.2766,321.052 50.5,319C 52.6742,318.123 54.3409,318.623 55.5,320.5 Z"/></g>
<g><path style="opacity:1" fill="#f5cdd8" d="M 139.5,322.5 C 140.492,322.672 141.158,322.338 141.5,321.5C 142.857,320.315 144.357,319.315 146,318.5C 149.649,319.96 150.316,322.293 148,325.5C 148.019,323.893 148.185,322.226 148.5,320.5C 145.972,321.023 143.639,322.023 141.5,323.5C 140.584,323.457 139.917,323.124 139.5,322.5 Z"/></g>
<g><path style="opacity:1" fill="#e495ac" d="M 141.5,321.5 C 141.158,322.338 140.492,322.672 139.5,322.5C 138.549,321.081 138.216,319.415 138.5,317.5C 142.099,317.262 142.433,318.262 139.5,320.5C 139.957,321.298 140.624,321.631 141.5,321.5 Z"/></g>
<g><path style="opacity:1" fill="#faedf0" d="M 138.5,306.5 C 133.618,308.238 128.618,309.571 123.5,310.5C 122.5,310.5 121.5,310.5 120.5,310.5C 120.5,313.5 120.5,316.5 120.5,319.5C 120.706,322.495 120.04,325.162 118.5,327.5C 117.51,321.69 117.177,315.69 117.5,309.5C 117.953,308.542 118.619,307.708 119.5,307C 128.409,306.419 136.743,303.919 144.5,299.5C 145.521,300.002 145.688,300.668 145,301.5C 142.674,303.066 140.508,304.732 138.5,306.5 Z"/></g>
<g><path style="opacity:1" fill="#be728b" d="M 123.5,310.5 C 122.035,313.366 121.035,316.366 120.5,319.5C 120.5,316.5 120.5,313.5 120.5,310.5C 121.5,310.5 122.5,310.5 123.5,310.5 Z"/></g>
<g><path style="opacity:1" fill="#f8e9ed" d="M 79.5,331.5 C 79.8769,333.258 80.5435,334.925 81.5,336.5C 81.3764,337.107 81.0431,337.44 80.5,337.5C 75.1314,329.377 72.7981,320.377 73.5,310.5C 65.394,310.312 58.0607,307.979 51.5,303.5C 50.3747,301.871 49.0414,300.371 47.5,299C 47.8333,298.833 48.1667,298.667 48.5,298.5C 56.3357,303.794 65.0024,306.627 74.5,307C 75.3333,307.833 76.1667,308.667 77,309.5C 77.1501,316.935 77.9834,324.268 79.5,331.5 Z"/></g>
<g><path style="opacity:1" fill="#971a39" d="M 150.5,260.5 C 155.971,271.044 158.971,282.377 159.5,294.5C 158.265,294.721 157.265,295.388 156.5,296.5C 154.588,294.844 152.588,294.511 150.5,295.5C 151.326,296.451 151.492,297.451 151,298.5C 146.911,300.914 144.411,304.414 143.5,309C 142.365,309.749 141.365,309.583 140.5,308.5C 141.5,307.833 142.5,307.167 143.5,306.5C 143.167,306.167 142.833,305.833 142.5,305.5C 141.264,306.246 139.93,306.579 138.5,306.5C 140.508,304.732 142.674,303.066 145,301.5C 145.688,300.668 145.521,300.002 144.5,299.5C 136.743,303.919 128.409,306.419 119.5,307C 118.619,307.708 117.953,308.542 117.5,309.5C 116.673,314.651 116.173,319.984 116,325.5C 115.339,329.648 114.173,333.648 112.5,337.5C 112.624,338.107 112.957,338.44 113.5,338.5C 112.074,339.341 110.74,340.341 109.5,341.5C 112.128,333.064 113.461,324.397 113.5,315.5C 111.61,315.297 110.11,315.963 109,317.5C 108.903,325.92 108.07,334.253 106.5,342.5C 106.439,344.721 107.105,345.054 108.5,343.5C 108.649,344.552 108.483,345.552 108,346.5C 105.683,350.23 102.85,350.897 99.5,348.5C 99.6236,347.893 99.9569,347.56 100.5,347.5C 100.435,347.938 100.601,348.272 101,348.5C 102.946,345.861 103.946,342.861 104,339.5C 104.333,331.5 104.667,323.5 105,315.5C 107.525,311.969 110.859,309.635 115,308.5C 116.993,304.535 118.993,300.535 121,296.5C 122.255,295.789 123.421,294.956 124.5,294C 135.615,293.806 145.948,290.973 155.5,285.5C 154.675,284.614 153.675,284.281 152.5,284.5C 153.811,280.069 154.144,277.403 153.5,276.5C 152.5,276.5 151.5,276.5 150.5,276.5C 151.158,273.844 151.825,271.178 152.5,268.5C 151.345,265.989 150.678,263.322 150.5,260.5 Z"/></g>
<g><path style="opacity:1" fill="#f7e2e7" d="M 151.5,290.5 C 152.239,290.369 152.906,290.536 153.5,291C 144.559,297.482 134.559,301.315 123.5,302.5C 123.33,301.178 123.663,300.011 124.5,299C 129.428,297.678 134.428,296.678 139.5,296C 143.814,294.628 147.814,292.795 151.5,290.5 Z"/></g>
<g><path style="opacity:1" fill="#f9e0e7" d="M 42.5,292.5 C 45.5324,292.105 48.5324,292.938 51.5,295C 57.0373,296.726 62.704,297.726 68.5,298C 70.4386,298.908 71.4386,300.408 71.5,302.5C 60.7155,302.268 51.0488,298.935 42.5,292.5 Z"/></g>
<g><path style="opacity:1" fill="#faecf0" d="M 152.5,284.5 C 153.675,284.281 154.675,284.614 155.5,285.5C 145.948,290.973 135.615,293.806 124.5,294C 123.421,294.956 122.255,295.789 121,296.5C 118.993,300.535 116.993,304.535 115,308.5C 110.859,309.635 107.525,311.969 105,315.5C 104.667,323.5 104.333,331.5 104,339.5C 103.946,342.861 102.946,345.861 101,348.5C 100.601,348.272 100.435,347.938 100.5,347.5C 101.753,340.146 101.753,332.813 100.5,325.5C 100.133,321.033 100.633,316.7 102,312.5C 105.647,309.612 109.647,307.279 114,305.5C 114.397,299.935 116.564,295.268 120.5,291.5C 121.473,291.013 122.473,290.513 123.5,290C 133.763,290.604 143.43,288.77 152.5,284.5 Z"/></g>
<g><path style="opacity:1" fill="#f7e4e9" d="M 40.5,284.5 C 43.7624,286.88 47.4291,287.88 51.5,287.5C 57.2385,289.134 63.2385,289.967 69.5,290C 76.5205,292.184 80.0205,297.018 80,304.5C 84.5703,307.138 88.9037,310.138 93,313.5C 94.0056,315.534 94.5056,317.7 94.5,320C 94.0992,323.167 93.7659,326.334 93.5,329.5C 92.6762,333.312 92.1762,337.312 92,341.5C 91.6174,340.944 91.1174,340.611 90.5,340.5C 89.4455,332.504 89.2789,324.504 90,316.5C 89.2155,314.714 88.0488,313.214 86.5,312C 83.7513,310.877 81.2513,309.377 79,307.5C 77.6636,301.643 74.497,297.143 69.5,294C 58.9775,294.078 49.1442,291.578 40,286.5C 39.3083,285.563 39.475,284.897 40.5,284.5 Z"/></g>
<g><path style="opacity:1" fill="#990730" d="M 139.5,244.5 C 143.94,249.278 147.607,254.612 150.5,260.5C 150.678,263.322 151.345,265.989 152.5,268.5C 151.825,271.178 151.158,273.844 150.5,276.5C 151.5,276.5 152.5,276.5 153.5,276.5C 154.144,277.403 153.811,280.069 152.5,284.5C 143.43,288.77 133.763,290.604 123.5,290C 122.473,290.513 121.473,291.013 120.5,291.5C 120.5,290.167 120.5,288.833 120.5,287.5C 123.713,287.81 126.713,287.477 129.5,286.5C 131.917,284.504 131.25,283.504 127.5,283.5C 129.064,278.755 130.897,274.088 133,269.5C 133.167,267.167 133.333,264.833 133.5,262.5C 133.471,259.731 132.805,257.397 131.5,255.5C 131.485,251.44 131.985,247.44 133,243.5C 133.561,242.978 134.228,242.645 135,242.5C 136.406,243.414 137.906,244.08 139.5,244.5 Z"/></g>
<g><path style="opacity:1" fill="#f5dce3" d="M 131.5,255.5 C 132.805,257.397 133.471,259.731 133.5,262.5C 133.333,264.833 133.167,267.167 133,269.5C 130.897,274.088 129.064,278.755 127.5,283.5C 131.25,283.504 131.917,284.504 129.5,286.5C 127.473,286.662 125.473,286.495 123.5,286C 122.919,285.107 122.585,284.107 122.5,283C 127.902,274.679 130.902,265.512 131.5,255.5 Z"/></g>
<g><path style="opacity:1" fill="#971e3c" d="M 128.5,234.5 C 132.791,237.123 136.457,240.456 139.5,244.5C 137.906,244.08 136.406,243.414 135,242.5C 134.228,242.645 133.561,242.978 133,243.5C 131.985,247.44 131.485,251.44 131.5,255.5C 130.902,265.512 127.902,274.679 122.5,283C 122.585,284.107 122.919,285.107 123.5,286C 125.473,286.495 127.473,286.662 129.5,286.5C 126.713,287.477 123.713,287.81 120.5,287.5C 120.5,288.833 120.5,290.167 120.5,291.5C 116.564,295.268 114.397,299.935 114,305.5C 109.647,307.279 105.647,309.612 102,312.5C 100.633,316.7 100.133,321.033 100.5,325.5C 99.6805,322.695 99.1805,319.695 99,316.5C 98.6758,314.431 97.8425,314.098 96.5,315.5C 94.8547,325.092 94.188,334.759 94.5,344.5C 93.5128,339.695 93.1795,334.695 93.5,329.5C 93.7659,326.334 94.0992,323.167 94.5,320C 94.5056,317.7 94.0056,315.534 93,313.5C 88.9037,310.138 84.5703,307.138 80,304.5C 80.0205,297.018 76.5205,292.184 69.5,290C 63.2385,289.967 57.2385,289.134 51.5,287.5C 53.8568,287.663 56.1902,287.497 58.5,287C 59.1258,286.25 59.6258,285.416 60,284.5C 60.8159,285.823 61.9826,286.489 63.5,286.5C 65.8568,286.663 68.1902,286.497 70.5,286C 71.0814,285.107 71.4148,284.107 71.5,283C 69.3658,278.184 67.1991,273.351 65,268.5C 64.1333,263.958 62.9666,259.625 61.5,255.5C 62.5511,254.778 63.2178,253.778 63.5,252.5C 65.4837,260.316 68.4837,267.816 72.5,275C 75.0915,275.301 75.9248,274.134 75,271.5C 70.5505,264.307 67.3838,256.64 65.5,248.5C 66.1667,245.833 66.8333,243.167 67.5,240.5C 67.3011,243.941 67.8011,247.274 69,250.5C 72.2705,258.037 75.7705,265.371 79.5,272.5C 78.8175,276.199 77.3175,279.532 75,282.5C 74.1799,284.728 74.5132,286.728 76,288.5C 78.0643,284.039 80.3977,279.706 83,275.5C 83.6667,273.167 83.6667,270.833 83,268.5C 81.6063,266.612 80.4396,264.612 79.5,262.5C 80.9432,261.665 81.9432,260.332 82.5,258.5C 83.606,260.284 83.606,262.118 82.5,264C 82.6301,265.059 83.1301,265.892 84,266.5C 84.2488,271.047 84.4155,275.38 84.5,279.5C 85.0717,282.244 86.7383,283.077 89.5,282C 92.6411,281.285 94.6411,279.452 95.5,276.5C 96.7134,275.425 98.2134,274.759 100,274.5C 101.681,274.608 102.848,275.275 103.5,276.5C 105.666,276.579 107.666,277.246 109.5,278.5C 110.713,278.253 111.38,277.586 111.5,276.5C 114.606,279.965 116.939,283.965 118.5,288.5C 118.833,287.333 119.167,286.167 119.5,285C 118.871,282.007 117.704,279.173 116,276.5C 115.333,273.833 115.333,271.167 116,268.5C 120.678,261.473 124.511,254.14 127.5,246.5C 127.369,247.239 127.536,247.906 128,248.5C 128.202,246.744 128.702,245.078 129.5,243.5C 130.904,244.999 131.57,244.666 131.5,242.5C 131.252,239.994 129.919,238.328 127.5,237.5C 128.127,236.583 128.461,235.583 128.5,234.5 Z"/></g>
<g><path style="opacity:1" fill="#fde7ed" d="M 81.5,298.5 C 84.2748,298.834 84.9415,300.167 83.5,302.5C 81.8888,301.68 81.2222,300.346 81.5,298.5 Z"/></g>
<g><path style="opacity:1" fill="#f2d1d8" d="M 111.5,297.5 C 114.047,299.29 113.714,300.956 110.5,302.5C 109.348,300.603 109.681,298.936 111.5,297.5 Z"/></g>
<g><path style="opacity:1" fill="#faeff3" d="M 95.5,287.5 C 98.1398,287.954 100.473,289.121 102.5,291C 104.134,291.494 105.801,291.66 107.5,291.5C 109.789,303.349 105.122,309.182 93.5,309C 87.333,305.155 85.1663,299.655 87,292.5C 89.5669,291.73 92.0669,290.73 94.5,289.5C 95.2975,289.043 95.6309,288.376 95.5,287.5 Z"/></g>
<g><path style="opacity:1" fill="#8d2541" d="M 93.5,304.5 C 95.6282,303.371 97.9615,303.204 100.5,304C 98.294,305.807 95.9606,305.974 93.5,304.5 Z"/></g>
<g><path style="opacity:1" fill="#b25d78" d="M 95.5,299.5 C 96.675,299.281 97.675,299.614 98.5,300.5C 96.9483,301.798 95.9483,301.465 95.5,299.5 Z"/></g>
<g><path style="opacity:1" fill="#913a52" d="M 90.5,293.5 C 92.3464,293.222 93.6798,293.889 94.5,295.5C 92.8333,296.833 91.1667,296.833 89.5,295.5C 89.8627,294.817 90.1961,294.15 90.5,293.5 Z"/></g>
<g><path style="opacity:1" fill="#943951" d="M 100.5,293.5 C 102.346,293.222 103.68,293.889 104.5,295.5C 102.833,296.833 101.167,296.833 99.5,295.5C 99.8627,294.817 100.196,294.15 100.5,293.5 Z"/></g>
<g><path style="opacity:1" fill="#faecef" d="M 79.5,290.5 C 82.7967,290.632 84.4633,292.298 84.5,295.5C 81.1667,295.5 79.5,293.833 79.5,290.5 Z"/></g>
<g><path style="opacity:1" fill="#f8e1e7" d="M 112.5,290.5 C 114.225,290.843 114.725,291.843 114,293.5C 112.89,295.037 111.39,295.703 109.5,295.5C 109.5,294.167 109.5,292.833 109.5,291.5C 110.791,291.737 111.791,291.404 112.5,290.5 Z"/></g>
<g><path style="opacity:1" fill="#f9f0f3" d="M 98.5,282.5 C 101.271,283.633 104.104,284.633 107,285.5C 108.984,285.259 110.817,284.592 112.5,283.5C 113.83,285.347 113.497,286.847 111.5,288C 106.848,289.193 102.681,288.36 99,285.5C 98.5172,284.552 98.3505,283.552 98.5,282.5 Z"/></g>
<g><path style="opacity:1" fill="#f8e5eb" d="M 93.5,282.5 C 94.675,282.281 95.675,282.614 96.5,283.5C 92.5232,288.299 87.5232,289.633 81.5,287.5C 80.5713,286.311 80.238,284.978 80.5,283.5C 85.1063,285.121 89.4396,284.787 93.5,282.5 Z"/></g>
<g><path style="opacity:1" fill="#f7e2e7" d="M 103.5,276.5 C 105.03,278.346 107.03,279.346 109.5,279.5C 109.5,280.5 109.5,281.5 109.5,282.5C 103.892,282.845 100.225,280.512 98.5,275.5C 100.216,275.629 101.883,275.962 103.5,276.5 Z"/></g>
<g><path style="opacity:1" fill="#f6e1e6" d="M 95.5,276.5 C 94.6411,279.452 92.6411,281.285 89.5,282C 86.7383,283.077 85.0717,282.244 84.5,279.5C 87.7029,278.317 90.8695,276.984 94,275.5C 94.7648,275.57 95.2648,275.903 95.5,276.5 Z"/></g>
<g><path style="opacity:1" fill="#f9e8ed" d="M 127.5,246.5 C 124.511,254.14 120.678,261.473 116,268.5C 115.333,271.167 115.333,273.833 116,276.5C 117.704,279.173 118.871,282.007 119.5,285C 119.167,286.167 118.833,287.333 118.5,288.5C 116.939,283.965 114.606,279.965 111.5,276.5C 111.335,273.482 111.502,270.482 112,267.5C 118.297,259.242 123.297,250.242 127,240.5C 127.495,242.473 127.662,244.473 127.5,246.5 Z"/></g>
<g><path style="opacity:1" fill="#f9e8ee" d="M 61.5,255.5 C 62.9666,259.625 64.1333,263.958 65,268.5C 67.1991,273.351 69.3658,278.184 71.5,283C 71.4148,284.107 71.0814,285.107 70.5,286C 68.1902,286.497 65.8568,286.663 63.5,286.5C 63.3893,285.883 63.056,285.383 62.5,285C 64.0589,284.02 65.7256,283.187 67.5,282.5C 62.2128,274.25 60.2128,265.25 61.5,255.5 Z"/></g>
<g><path style="opacity:1" fill="#f9e6ec" d="M 67.5,240.5 C 70.2154,246.44 73.0487,252.44 76,258.5C 76.9487,260.093 78.1154,261.426 79.5,262.5C 80.4396,264.612 81.6063,266.612 83,268.5C 83.6667,270.833 83.6667,273.167 83,275.5C 80.3977,279.706 78.0643,284.039 76,288.5C 74.5132,286.728 74.1799,284.728 75,282.5C 77.3175,279.532 78.8175,276.199 79.5,272.5C 75.7705,265.371 72.2705,258.037 69,250.5C 67.8011,247.274 67.3011,243.941 67.5,240.5 Z"/></g>
<g><path style="opacity:1" fill="#f8e5eb" d="M 129.5,246.5 C 130.503,256.433 128.17,265.767 122.5,274.5C 121.675,275.386 120.675,275.719 119.5,275.5C 119.34,273.801 119.506,272.134 120,270.5C 125.033,263.234 128.2,255.234 129.5,246.5 Z"/></g>
<g><path style="opacity:1" fill="#98062f" d="M 128.5,234.5 C 128.461,235.583 128.127,236.583 127.5,237.5C 129.919,238.328 131.252,239.994 131.5,242.5C 131.57,244.666 130.904,244.999 129.5,243.5C 128.702,245.078 128.202,246.744 128,248.5C 127.536,247.906 127.369,247.239 127.5,246.5C 127.662,244.473 127.495,242.473 127,240.5C 123.297,250.242 118.297,259.242 112,267.5C 111.502,270.482 111.335,273.482 111.5,276.5C 111.38,277.586 110.713,278.253 109.5,278.5C 107.666,277.246 105.666,276.579 103.5,276.5C 102.848,275.275 101.681,274.608 100,274.5C 98.2134,274.759 96.7134,275.425 95.5,276.5C 95.2648,275.903 94.7648,275.57 94,275.5C 90.8695,276.984 87.7029,278.317 84.5,279.5C 84.4155,275.38 84.2488,271.047 84,266.5C 83.1301,265.892 82.6301,265.059 82.5,264C 83.606,262.118 83.606,260.284 82.5,258.5C 81.9432,260.332 80.9432,261.665 79.5,262.5C 78.1154,261.426 76.9487,260.093 76,258.5C 73.0487,252.44 70.2154,246.44 67.5,240.5C 66.8333,243.167 66.1667,245.833 65.5,248.5C 65.6309,247.624 65.2975,246.957 64.5,246.5C 63.5344,248.396 63.2011,250.396 63.5,252.5C 63.2178,253.778 62.5511,254.778 61.5,255.5C 60.2128,265.25 62.2128,274.25 67.5,282.5C 65.7256,283.187 64.0589,284.02 62.5,285C 63.056,285.383 63.3893,285.883 63.5,286.5C 61.9826,286.489 60.8159,285.823 60,284.5C 59.6258,285.416 59.1258,286.25 58.5,287C 56.1902,287.497 53.8568,287.663 51.5,287.5C 47.4291,287.88 43.7624,286.88 40.5,284.5C 38.983,281.413 38.3163,278.079 38.5,274.5C 45.3026,248.531 61.636,232.031 87.5,225C 102.625,222.521 116.292,225.687 128.5,234.5 Z"/></g>
<g><path style="opacity:1" fill="#f5dfe6" d="M 65.5,248.5 C 67.3838,256.64 70.5505,264.307 75,271.5C 75.9248,274.134 75.0915,275.301 72.5,275C 68.4837,267.816 65.4837,260.316 63.5,252.5C 63.2011,250.396 63.5344,248.396 64.5,246.5C 65.2975,246.957 65.6309,247.624 65.5,248.5 Z"/></g>
<g><path style="opacity:1" fill="#913249" d="M 96.5,244.5 C 97.1667,244.5 97.8333,244.5 98.5,244.5C 98.5,249.167 98.5,253.833 98.5,258.5C 100.621,258.675 102.621,258.341 104.5,257.5C 103.047,259.229 101.047,260.229 98.5,260.5C 97.8243,259.398 97.1577,258.398 96.5,257.5C 96.5,253.167 96.5,248.833 96.5,244.5 Z"/></g>
<g><path style="opacity:1" fill="#fbe8ed" d="M 98.5,244.5 C 99.1174,244.611 99.6174,244.944 100,245.5C 100.882,248.789 101.548,252.123 102,255.5C 103.88,252.808 106.38,251.641 109.5,252C 107.627,253.704 105.96,255.537 104.5,257.5C 102.621,258.341 100.621,258.675 98.5,258.5C 98.5,253.833 98.5,249.167 98.5,244.5 Z"/></g>
<g><path style="opacity:1" fill="#f6dfe6" d="M 94.5,246.5 C 95.4816,249.962 95.815,253.629 95.5,257.5C 94.6857,259.273 93.3524,259.773 91.5,259C 89.316,256.984 87.316,254.817 85.5,252.5C 86,252.167 86.5,251.833 87,251.5C 88.7374,252.62 90.5708,253.62 92.5,254.5C 93.2604,251.813 93.9271,249.147 94.5,246.5 Z"/></g>
<g><path style="opacity:1" fill="#fcaec8" d="M 96.5,244.5 C 96.5,248.833 96.5,253.167 96.5,257.5C 96.1667,257.5 95.8333,257.5 95.5,257.5C 95.815,253.629 95.4816,249.962 94.5,246.5C 94.5,245.167 95.1667,244.5 96.5,244.5 Z"/></g>
<g><path style="opacity:1" fill="#f2bccb" d="M 83.5,354.5 C 84.5862,354.62 85.2528,355.287 85.5,356.5C 86.0639,358.819 86.5639,361.153 87,363.5C 88.7433,361.679 90.2433,359.679 91.5,357.5C 93.8333,356.167 96.1667,356.167 98.5,357.5C 99.7567,359.679 101.257,361.679 103,363.5C 104.006,360.155 105.506,357.155 107.5,354.5C 109.171,358.364 109.671,362.364 109,366.5C 108,364.167 107,361.833 106,359.5C 105.259,367.804 102.926,368.471 99,361.5C 98.8142,363.9 98.3142,366.234 97.5,368.5C 97.536,355.176 94.2026,354.176 87.5,365.5C 86.675,366.386 85.675,366.719 84.5,366.5C 84.4955,362.466 84.1621,358.466 83.5,354.5 Z"/></g>
</svg>
